<svg width="273" height="59" viewBox="0 0 273 59" fill="none" xmlns="http://www.w3.org/2000/svg">
<g clip-path="url(#clip0_14_47)">
<path d="M59.4 58.2H0V18.6L29.7 0L59.4 18.6V58.2ZM5.60001 52.5H53.7V21.7L29.7 6.60001L5.70001 21.7V52.5H5.60001Z" fill="white"/>
<path d="M29.7004 8.6001V36.8001L7.40039 50.8001V22.6001L29.7004 8.6001Z" fill="white"/>
<path d="M52.0002 22.6001L29.7002 8.6001V36.8001L52.0002 50.8001V22.6001Z" fill="white"/>
<path d="M78.4996 49.7C75.0996 49.7 72.1996 48.7 69.9996 46.6C67.6996 44.5 66.5996 41.8 66.5996 38.6C66.5996 35.3 67.6996 32.7 69.9996 30.6C72.2996 28.5 75.0996 27.5 78.4996 27.5C80.4996 27.5 82.3996 27.9 83.9996 28.7V34.1C82.2996 33.1 80.4996 32.5 78.4996 32.5C76.6996 32.5 75.1996 33.1 73.9996 34.2C72.7996 35.3 72.1996 36.8 72.1996 38.5C72.1996 40.3 72.7996 41.8 73.9996 42.9C75.1996 44 76.7996 44.6 78.6996 44.6C80.8996 44.6 82.7996 44 84.2996 42.9V48.3C82.5996 49.2 80.5996 49.7 78.4996 49.7Z" fill="white"/>
<path d="M91.0994 53.3998H85.8994V44.3998H87.8994C89.4994 41.6998 90.2994 37.4998 90.2994 31.6998V27.7998H106.299V44.3998H109.099V53.3998H103.899V49.1998H90.9994V53.3998H91.0994ZM93.8994 44.3998H100.799V32.5998H95.7994C95.7994 37.0998 95.1994 41.0998 93.8994 44.3998Z" fill="white"/>
<path d="M128.5 49.1998H112V27.7998H128.3V32.5998H117.5V35.4998H126.1V40.1998H117.5V44.3998H128.5V49.1998Z" fill="white"/>
<path d="M132.099 49.3998C131.099 49.3998 130.299 49.2998 129.699 48.9998V43.9998C130.299 44.2998 130.799 44.3998 131.299 44.3998C132.399 44.3998 132.999 43.6998 133.399 42.3998C133.699 41.0998 133.899 38.3998 133.999 34.2998L134.099 27.7998H150.099V49.1998H144.599V32.5998H139.499L139.399 34.9998C139.199 40.6998 138.699 44.4998 137.699 46.1998C136.499 48.3998 134.699 49.3998 132.099 49.3998Z" fill="white"/>
<path d="M159.699 49.1998H154.199V27.7998H159.699V35.9998L166.599 27.7998H173.199L164.899 37.6998L174.699 49.2998H167.999L159.599 39.7998V49.1998H159.699Z" fill="white"/>
<path d="M181.3 49.1998H176.6V27.7998H182.1V39.8998L190.9 27.7998H195.7V49.1998H190.2V36.9998L181.3 49.1998Z" fill="white"/>
<path d="M213.899 49.1998H208.399V27.7998H217.899C220.299 27.7998 222.199 28.3998 223.599 29.6998C224.999 30.8998 225.699 32.5998 225.699 34.4998C225.699 36.4998 224.999 38.0998 223.599 39.3998C222.199 40.5998 220.299 41.2998 217.899 41.2998H213.899V49.1998ZM213.899 32.4998V36.7998H217.499C218.299 36.7998 218.899 36.5998 219.399 36.1998C219.899 35.7998 220.099 35.2998 220.099 34.5998C220.099 33.8998 219.899 33.3998 219.399 32.9998C218.899 32.5998 218.299 32.3998 217.499 32.3998H213.899V32.4998Z" fill="white"/>
<path d="M234.1 49.1998H228.6V27.7998H238.6C241 27.7998 242.8 28.3998 244.2 29.6998C245.6 30.8998 246.3 32.4998 246.3 34.3998C246.3 35.7998 245.9 36.9998 245.2 38.0998C244.5 39.1998 243.4 39.8998 242.1 40.4998L248.6 49.2998H242.3L236.2 41.0998H234V49.1998H234.1ZM234.1 32.4998V36.5998H238.4C239.2 36.5998 239.8 36.3998 240.2 36.0998C240.6 35.6998 240.9 35.1998 240.9 34.5998C240.9 33.9998 240.7 33.4998 240.2 33.0998C239.8 32.6998 239.2 32.4998 238.4 32.4998H234.1Z" fill="white"/>
<path d="M268.9 46.3999C266.8 48.5999 264.1 49.5999 260.8 49.5999C257.6 49.5999 254.9 48.4999 252.7 46.3999C250.6 44.1999 249.5 41.5999 249.5 38.4999C249.5 35.3999 250.6 32.7999 252.7 30.5999C254.8 28.3999 257.5 27.3999 260.8 27.3999C264 27.3999 266.7 28.4999 268.9 30.5999C271 32.7999 272.1 35.3999 272.1 38.4999C272.2 41.5999 271.1 44.2999 268.9 46.3999ZM256.8 42.8999C257.9 43.9999 259.2 44.5999 260.8 44.5999C262.4 44.5999 263.7 43.9999 264.8 42.8999C265.9 41.7999 266.4 40.2999 266.4 38.5999C266.4 36.7999 265.9 35.3999 264.8 34.2999C263.7 33.1999 262.4 32.5999 260.8 32.5999C259.2 32.5999 257.8 33.1999 256.8 34.2999C255.7 35.3999 255.2 36.8999 255.2 38.5999C255.2 40.2999 255.8 41.7999 256.8 42.8999Z" fill="white"/>
<path d="M205.299 42.7998H198.899V49.1998H205.299V42.7998Z" fill="white"/>
</g>
<defs>
<clipPath id="clip0_14_47">
<rect width="272.106" height="58.2" fill="white"/>
</clipPath>
</defs>
</svg>
