<svg width="273" height="59" viewBox="0 0 273 59" fill="none" xmlns="http://www.w3.org/2000/svg">
<path d="M59.4 58.2H0V18.6L29.7 0L59.4 18.6V58.2ZM5.60001 52.5H53.7V21.7L29.7 6.60001L5.70001 21.7V52.5H5.60001Z" fill="#2F9042"/>
<path d="M29.7004 8.60001V36.8L7.40039 50.8V22.6L29.7004 8.60001Z" fill="#A6A8AB"/>
<path d="M52.0002 22.6L29.7002 8.60001V36.8L52.0002 50.8V22.6Z" fill="#2F9042"/>
<path d="M78.4996 49.7C75.0996 49.7 72.1996 48.7 69.9996 46.6C67.6996 44.5 66.5996 41.8 66.5996 38.6C66.5996 35.3 67.6996 32.7 69.9996 30.6C72.2996 28.5 75.0996 27.5 78.4996 27.5C80.4996 27.5 82.3996 27.9 83.9996 28.7V34.1C82.2996 33.1 80.4996 32.5 78.4996 32.5C76.6996 32.5 75.1996 33.1 73.9996 34.2C72.7996 35.3 72.1996 36.8 72.1996 38.5C72.1996 40.3 72.7996 41.8 73.9996 42.9C75.1996 44 76.7996 44.6 78.6996 44.6C80.8996 44.6 82.7996 44 84.2996 42.9V48.3C82.5996 49.2 80.5996 49.7 78.4996 49.7Z" fill="#2F9042"/>
<path d="M91.0994 53.4H85.8994V44.4H87.8994C89.4994 41.7 90.2994 37.5 90.2994 31.7V27.8H106.299V44.4H109.099V53.4H103.899V49.2H90.9994V53.4H91.0994ZM93.8994 44.4H100.799V32.6H95.7994C95.7994 37.1 95.1994 41.1 93.8994 44.4Z" fill="#2F9042"/>
<path d="M128.5 49.2H112V27.8H128.3V32.6H117.5V35.5H126.1V40.2H117.5V44.4H128.5V49.2Z" fill="#2F9042"/>
<path d="M132.099 49.4C131.099 49.4 130.299 49.3 129.699 49V44C130.299 44.3 130.799 44.4 131.299 44.4C132.399 44.4 132.999 43.7 133.399 42.4C133.699 41.1 133.899 38.4 133.999 34.3L134.099 27.8H150.099V49.2H144.599V32.6H139.499L139.399 35C139.199 40.7 138.699 44.5 137.699 46.2C136.499 48.4 134.699 49.4 132.099 49.4Z" fill="#2F9042"/>
<path d="M159.699 49.2H154.199V27.8H159.699V36L166.599 27.8H173.199L164.899 37.7L174.699 49.3H167.999L159.599 39.8V49.2H159.699Z" fill="#2F9042"/>
<path d="M181.3 49.2H176.6V27.8H182.1V39.9L190.9 27.8H195.7V49.2H190.2V37L181.3 49.2Z" fill="#2F9042"/>
<path d="M213.899 49.2H208.399V27.8H217.899C220.299 27.8 222.199 28.4 223.599 29.7C224.999 30.9 225.699 32.6 225.699 34.5C225.699 36.5 224.999 38.1 223.599 39.4C222.199 40.6 220.299 41.3 217.899 41.3H213.899V49.2ZM213.899 32.5V36.8H217.499C218.299 36.8 218.899 36.6 219.399 36.2C219.899 35.8 220.099 35.3 220.099 34.6C220.099 33.9 219.899 33.4 219.399 33C218.899 32.6 218.299 32.4 217.499 32.4H213.899V32.5Z" fill="#A6A8AB"/>
<path d="M234.1 49.2H228.6V27.8H238.6C241 27.8 242.8 28.4 244.2 29.7C245.6 30.9 246.3 32.5 246.3 34.4C246.3 35.8 245.9 37 245.2 38.1C244.5 39.2 243.4 39.9 242.1 40.5L248.6 49.3H242.3L236.2 41.1H234V49.2H234.1ZM234.1 32.5V36.6H238.4C239.2 36.6 239.8 36.4 240.2 36.1C240.6 35.7 240.9 35.2 240.9 34.6C240.9 34 240.7 33.5 240.2 33.1C239.8 32.7 239.2 32.5 238.4 32.5H234.1Z" fill="#A6A8AB"/>
<path d="M268.9 46.4C266.8 48.6 264.1 49.6 260.8 49.6C257.6 49.6 254.9 48.5 252.7 46.4C250.6 44.2 249.5 41.6 249.5 38.5C249.5 35.4 250.6 32.8 252.7 30.6C254.8 28.4 257.5 27.4 260.8 27.4C264 27.4 266.7 28.5 268.9 30.6C271 32.8 272.1 35.4 272.1 38.5C272.2 41.6 271.1 44.3 268.9 46.4ZM256.8 42.9C257.9 44 259.2 44.6 260.8 44.6C262.4 44.6 263.7 44 264.8 42.9C265.9 41.8 266.4 40.3 266.4 38.6C266.4 36.8 265.9 35.4 264.8 34.3C263.7 33.2 262.4 32.6 260.8 32.6C259.2 32.6 257.8 33.2 256.8 34.3C255.7 35.4 255.2 36.9 255.2 38.6C255.2 40.3 255.8 41.8 256.8 42.9Z" fill="#A6A8AB"/>
<path d="M205.299 42.8H198.899V49.2H205.299V42.8Z" fill="#2F9042"/>
</svg>
