<?xml version="1.0" encoding="utf-8"?>
<!-- Generator: Adobe Illustrator 23.1.0, SVG Export Plug-In . SVG Version: 6.00 Build 0)  -->
<svg version="1.1" id="Слой_1" xmlns="http://www.w3.org/2000/svg" xmlns:xlink="http://www.w3.org/1999/xlink" x="0px" y="0px"
	 viewBox="0 0 566.9 283.5" style="enable-background:new 0 0 566.9 283.5;" xml:space="preserve">
<style type="text/css">
	.st0{fill:#2F9042;}
	.st1{fill:#A6A8AB;}
</style>
<g>
	<g>
		<path class="st0" d="M206.8,170.9h-59.4v-39.6l29.7-18.6l29.7,18.6V170.9z M153,165.2h48.1v-30.8l-24-15.1l-24,15.1V165.2z"/>
		<polygon class="st1" points="177.1,121.3 177.1,149.5 154.8,163.5 154.8,135.3 		"/>
		<polygon class="st0" points="199.4,135.3 177.1,121.3 177.1,149.5 199.4,163.5 		"/>
	</g>
	<g>
		<g>
			<path class="st0" d="M225.9,162.4c-3.4,0-6.3-1-8.5-3.1c-2.3-2.1-3.4-4.8-3.4-8c0-3.3,1.1-5.9,3.4-8c2.3-2.1,5.1-3.1,8.5-3.1
				c2,0,3.9,0.4,5.5,1.2v5.4c-1.7-1-3.5-1.6-5.5-1.6c-1.8,0-3.3,0.6-4.5,1.7c-1.2,1.1-1.8,2.6-1.8,4.3c0,1.8,0.6,3.3,1.8,4.4
				c1.2,1.1,2.8,1.7,4.7,1.7c2.2,0,4.1-0.6,5.6-1.7v5.4C230,161.9,228,162.4,225.9,162.4z"/>
			<path class="st0" d="M238.5,166.1h-5.2v-9h2c1.6-2.7,2.4-6.9,2.4-12.7v-3.9h16v16.6h2.8v9h-5.2v-4.2h-12.9V166.1z M241.3,157.1
				h6.9v-11.8h-5C243.2,149.8,242.6,153.8,241.3,157.1z"/>
			<path class="st0" d="M275.9,161.9h-16.5v-21.4h16.3v4.8h-10.8v2.9h8.6v4.7h-8.6v4.2h11V161.9z"/>
			<path class="st0" d="M279.5,162.1c-1,0-1.8-0.1-2.4-0.4v-5c0.6,0.3,1.1,0.4,1.6,0.4c1.1,0,1.7-0.7,2.1-2c0.3-1.3,0.5-4,0.6-8.1
				l0.1-6.5h16v21.4h-5.5v-16.6h-5.1l-0.1,2.4c-0.2,5.7-0.7,9.5-1.7,11.2C283.9,161.1,282.1,162.1,279.5,162.1z"/>
			<path class="st0" d="M307.1,161.9h-5.5v-21.4h5.5v8.2l6.9-8.2h6.6l-8.3,9.9l9.8,11.6h-6.7l-8.4-9.5V161.9z"/>
			<path class="st0" d="M328.7,161.9H324v-21.4h5.5v12.1l8.8-12.1h4.8v21.4h-5.5v-12.2L328.7,161.9z"/>
			<path class="st1" d="M361.3,161.9h-5.5v-21.4h9.5c2.4,0,4.3,0.6,5.7,1.9c1.4,1.2,2.1,2.9,2.1,4.8c0,2-0.7,3.6-2.1,4.9
				c-1.4,1.2-3.3,1.9-5.7,1.9h-4V161.9z M361.3,145.2v4.3h3.6c0.8,0,1.4-0.2,1.9-0.6s0.7-0.9,0.7-1.6c0-0.7-0.2-1.2-0.7-1.6
				c-0.5-0.4-1.1-0.6-1.9-0.6H361.3z"/>
			<path class="st1" d="M381.5,161.9h-5.5v-21.4H386c2.4,0,4.2,0.6,5.6,1.9c1.4,1.2,2.1,2.8,2.1,4.7c0,1.4-0.4,2.6-1.1,3.7
				c-0.7,1.1-1.8,1.8-3.1,2.4l6.5,8.8h-6.3l-6.1-8.2h-2.2V161.9z M381.5,145.2v4.1h4.3c0.8,0,1.4-0.2,1.8-0.5
				c0.4-0.4,0.7-0.9,0.7-1.5c0-0.6-0.2-1.1-0.7-1.5c-0.4-0.4-1-0.6-1.8-0.6H381.5z"/>
			<path class="st1" d="M416.3,159.1c-2.1,2.2-4.8,3.2-8.1,3.2c-3.2,0-5.9-1.1-8.1-3.2c-2.1-2.2-3.2-4.8-3.2-7.9
				c0-3.1,1.1-5.7,3.2-7.9c2.1-2.2,4.8-3.2,8.1-3.2c3.2,0,5.9,1.1,8.1,3.2c2.1,2.2,3.2,4.8,3.2,7.9
				C419.6,154.3,418.5,157,416.3,159.1z M404.2,155.6c1.1,1.1,2.4,1.7,4,1.7c1.6,0,2.9-0.6,4-1.7c1.1-1.1,1.6-2.6,1.6-4.3
				c0-1.8-0.5-3.2-1.6-4.3c-1.1-1.1-2.4-1.7-4-1.7c-1.6,0-3,0.6-4,1.7c-1.1,1.1-1.6,2.6-1.6,4.3C402.6,153,403.2,154.5,404.2,155.6z
				"/>
		</g>
		<rect x="346.3" y="155.5" class="st0" width="6.4" height="6.4"/>
	</g>
</g>
</svg>
