<svg width="313" height="93" viewBox="0 0 313 93" fill="none" xmlns="http://www.w3.org/2000/svg">
<path fill-rule="evenodd" clip-rule="evenodd" d="M28.6105 0.839744C25.6222 1.33854 23.4397 3.11855 21.8458 6.35667C21.2981 7.46936 20.8237 8.67618 19.5951 12.0811C18.4263 15.3204 18.3059 15.6503 16.1899 21.4132C15.7803 22.529 14.8262 25.1461 14.07 27.2289C12.0744 32.7249 10.298 37.5719 10.0795 38.1164C9.97498 38.3768 9.60575 39.381 9.2587 40.348C8.06541 43.6741 7.74676 44.5505 6.43106 48.1248C2.86252 57.8199 2.80139 58.0008 2.98425 58.3423C3.19524 58.7367 3.07162 58.6815 7.84982 60.5167C13.7914 62.7989 13.4587 62.6889 13.7326 62.4616C14.0081 62.2329 13.931 62.4222 15.4416 58.2685C16.1044 56.446 16.7033 54.8332 16.7724 54.6844C16.8867 54.4386 17.6747 52.2134 18.0296 51.1341L18.1742 50.6945H30.362H42.5497L42.9136 51.7427C43.1137 52.3192 43.4329 53.2474 43.6229 53.8053C43.8128 54.3632 44.0237 54.9414 44.0912 55.0901C44.3172 55.5874 45.9899 60.2075 45.9899 60.3343C45.9899 60.403 46.0741 60.651 46.177 60.8854C46.2798 61.1198 46.4413 61.514 46.5358 61.7615C46.6303 62.0092 46.8486 62.304 47.0208 62.4168C47.3147 62.6093 47.502 62.5582 50.0639 61.5858C52.5737 60.6332 56.3478 59.1539 57.2547 58.7674C57.6549 58.5969 57.8312 58.1883 57.7191 57.6912C57.6582 57.4215 57.197 56.1221 56.3877 53.9405C56.236 53.5314 55.9364 52.7098 55.722 52.1147C55.5076 51.5196 55.1434 50.5153 54.9127 49.8831C54.682 49.2508 54.4428 48.5813 54.3813 48.3953C54.3199 48.2094 53.7523 46.6574 53.1201 44.9465C52.4878 43.2356 51.6213 40.862 51.1944 39.6718C50.7675 38.4816 50.3042 37.2498 50.1652 36.9345C50.026 36.6191 49.9121 36.3064 49.9121 36.2394C49.9121 36.1724 49.6419 35.3958 49.3115 34.5135C47.9646 30.9157 46.2604 26.2459 46.2604 26.1523C46.2604 26.0974 46.1744 25.8607 46.0693 25.6264C45.9644 25.392 45.7599 24.8654 45.6152 24.4563C45.4703 24.0472 45.0694 22.9407 44.7241 21.9975C44.379 21.0543 44.0965 20.2418 44.0965 20.1921C44.0965 20.1423 44.01 19.9098 43.9044 19.6754C43.7201 19.2664 41.7219 13.8471 40.5057 10.4581C38.7846 5.66163 37.4898 3.52416 35.4777 2.15747C34.4254 1.44268 33.8515 1.21844 32.2913 0.912237C30.816 0.622805 30.0058 0.606846 28.6105 0.839744ZM31.2958 17.7615C31.7104 19.0261 33.5124 24.4266 35.3004 29.7625C37.0884 35.0986 38.5513 39.5567 38.5513 39.6695C38.5513 39.8506 37.5918 39.8747 30.3687 39.8747C23.9194 39.8747 22.1862 39.839 22.1862 39.7059C22.1862 39.5448 23.0328 36.857 23.2621 36.2906C23.3223 36.1418 23.8028 34.7115 24.3299 33.1122C24.8571 31.5129 25.3529 30.0218 25.4317 29.7986C25.5654 29.4203 27.2608 24.3261 27.7049 22.9686C27.8144 22.6338 28.3259 21.1123 28.8416 19.5874C29.3573 18.0624 29.8379 16.5786 29.9095 16.29C30.0817 15.5966 30.3006 15.2029 30.4342 15.3464C30.4936 15.4101 30.8813 16.4969 31.2958 17.7615ZM236.555 30.4252C235.325 30.5509 231.614 31.15 230.942 31.3314L230.537 31.4411L230.503 45.1591L230.47 58.8771L231.585 59.1992C236.632 60.6571 241.144 60.8021 244.333 59.6091C246.361 58.8502 247.93 57.4951 248.78 55.7664C249.586 54.1285 249.707 53.6225 249.777 51.5737C249.86 49.1478 249.7 48.1385 249.005 46.7038C247.945 44.5138 245.838 42.9487 243.352 42.5056C241.966 42.2584 239.088 42.2607 237.57 42.5101C236.9 42.6202 236.307 42.7112 236.251 42.7126C236.195 42.7138 236.15 41.0753 236.15 39.0711C236.15 35.252 236.147 35.2705 236.756 35.1815C237.849 35.0215 242.969 34.9916 244.947 35.1337C246.22 35.2249 247.281 35.2792 247.306 35.2542C247.33 35.2291 247.371 34.2855 247.397 33.1574L247.443 31.1064L245.617 30.8196C242.399 30.3145 239.063 30.1694 236.555 30.4252ZM99.9593 30.6147C99.553 30.7287 99.1785 30.8902 99.1271 30.9734C99.0303 31.13 97.7451 34.7569 96.1646 39.3337C95.6638 40.7842 95.0278 42.6101 94.7514 43.3911C94.4749 44.1722 94.1871 45.0243 94.1119 45.2846C94.0366 45.545 93.9295 45.8188 93.8736 45.8932C93.8179 45.9676 93.7084 46.2719 93.6301 46.5695C93.5519 46.867 93.1124 48.1755 92.6537 49.4773C90.2567 56.2794 89.1342 59.565 89.1342 59.7803C89.1342 59.8444 90.449 59.8804 92.0559 59.8603L94.9774 59.8238L95.1527 59.2828C95.249 58.9853 95.6508 57.7217 96.0453 56.4749L96.7627 54.2079L102.03 54.2433L107.297 54.2786L107.557 55.1578C107.701 55.6413 107.989 56.5846 108.198 57.2541C108.407 57.9236 108.657 58.7909 108.755 59.1814L108.932 59.8915H112.017C113.714 59.8915 115.102 59.8459 115.102 59.79C115.103 59.6814 113.972 56.1843 111.855 49.7478C111.134 47.5534 110.164 44.5712 109.699 43.1206C109.235 41.6701 108.714 40.0877 108.541 39.6042C108.368 39.1206 107.672 37.0209 106.994 34.9381C106.316 32.8553 105.717 31.0903 105.664 31.0159C105.287 30.4907 101.379 30.2159 99.9593 30.6147ZM171.704 34.7241C171.704 37.0983 171.661 39.083 171.609 39.1348C171.558 39.1865 171.223 39.1262 170.866 39.0005C169.99 38.6931 167.743 38.5824 166.392 38.7801C164.066 39.1202 162.356 40.1565 161.066 42.0086C159.557 44.1741 158.863 48.3115 159.394 51.9794C159.674 53.9181 159.927 54.7933 160.604 56.1721C161.916 58.8404 164.166 60.2067 167.24 60.201C168.662 60.1985 169.954 59.9809 170.862 59.5911C171.218 59.4385 171.553 59.3574 171.606 59.4108C171.66 59.4643 171.704 61.1463 171.704 63.1485V66.789H174.375L177.046 66.7891V63.0698C177.046 60.9046 177.098 59.3505 177.17 59.3505C177.238 59.3505 177.58 59.4733 177.931 59.6235C178.281 59.7737 179.152 59.9905 179.866 60.1054C183.148 60.6334 185.927 59.472 187.614 56.8678C188.228 55.9208 188.871 54.3045 189.169 52.959C189.449 51.6947 189.49 47.5538 189.238 46.0481C188.871 43.8588 187.949 41.9853 186.64 40.7738C185.11 39.3572 183.685 38.8246 181.103 38.7038C179.616 38.6342 179.119 38.6933 177.35 39.1512L177.046 39.2299V34.8187V30.4073H174.375L171.704 30.4074V34.7241ZM102.684 37.9894C103.684 41.6873 104.594 45.0042 104.759 45.5551C105.484 47.9738 105.778 49.1257 105.714 49.2913C105.653 49.4512 105.037 49.4818 102.057 49.4728C99.9568 49.4665 98.44 49.4089 98.3936 49.3338C98.3242 49.2216 98.9528 46.9522 100.021 43.4587C100.843 40.7692 101.429 38.7683 101.715 37.6728C101.886 37.0197 102.088 36.506 102.164 36.5314C102.24 36.5567 102.474 37.2128 102.684 37.9894ZM124.028 38.8456C122.812 39.0111 121.954 39.191 120.005 39.6888L119.159 39.9047V46.4243C119.159 50.5075 119.105 53.2388 119.014 53.7328C118.805 54.8611 118.323 55.8628 117.629 56.6076L117.027 57.2541L117.385 57.998C117.582 58.4071 117.86 59.0157 118.003 59.3505C118.147 59.6852 118.315 60.0286 118.378 60.1135C118.651 60.4825 121.374 59.2731 122.323 58.3615C123.117 57.5991 123.552 56.8632 123.868 55.7496C124.383 53.9327 124.434 53.2656 124.434 48.3631V43.5458L125.212 43.4347C126.202 43.2932 128.769 43.2929 129.606 43.4343L130.248 43.5426L130.283 51.6832L130.317 59.8238L132.989 59.8605L135.66 59.8971V49.9583C135.66 40.2739 135.653 40.0159 135.398 39.8795C135.036 39.6854 133.127 39.2253 131.67 38.9807C130.002 38.7006 125.657 38.6237 124.028 38.8456ZM197.536 38.799C196.493 38.9042 195.891 39.0076 194.006 39.4043C193.746 39.4589 193.73 39.5204 193.825 40.1089C193.883 40.4637 194.032 41.2102 194.156 41.7681C194.281 42.326 194.396 42.8877 194.413 43.0165C194.429 43.1451 194.476 43.2837 194.517 43.3246C194.557 43.3654 195.345 43.2992 196.266 43.1773C198.254 42.9144 200.78 42.975 201.569 43.3044C202.561 43.719 202.764 44.1651 202.778 45.9608C202.789 47.4313 202.941 47.3224 201.261 47.0447C199.487 46.7515 196.949 47.1481 195.253 47.9835C194.035 48.5837 193.512 49.0119 192.915 49.8969C191.98 51.2825 191.732 52.2997 191.815 54.4031C191.867 55.7488 191.918 55.9948 192.311 56.8155C193.397 59.0806 195.615 60.3255 198.556 60.321C200.504 60.318 202.371 59.8447 203.67 59.0248C204.341 58.6013 204.517 58.59 204.776 58.9528C204.885 59.1062 205.29 59.4756 205.676 59.7739C206.304 60.2595 206.41 60.299 206.69 60.1503C207.067 59.9507 208.551 58.9401 208.788 58.7213C208.881 58.6355 209.172 58.4328 209.434 58.2706C209.697 58.1086 209.911 57.9559 209.911 57.9314C209.911 57.9069 209.677 57.4706 209.39 56.962C208.308 55.0424 208.163 54.0722 208.157 48.7299C208.151 42.9558 207.948 41.873 206.599 40.4311C205.92 39.7047 205.124 39.2628 203.96 38.9655C203.039 38.7301 199.205 38.6306 197.536 38.799ZM258.06 38.7928C256.882 38.8988 254.181 39.3803 254.055 39.5068C254.025 39.5363 254.055 39.7375 254.122 39.9542C254.188 40.1709 254.385 41.0368 254.559 41.8788L254.876 43.4095L255.284 43.3405C257.74 42.9256 260.941 42.9079 261.889 43.3042C262.857 43.7087 263.036 44.0611 263.149 45.7942C263.213 46.7691 263.193 47.1659 263.077 47.2379C262.988 47.2925 262.599 47.2567 262.212 47.1581C260.597 46.747 257.759 47.0436 255.897 47.8178C254.881 48.2405 254.705 48.3637 253.821 49.2694C252.527 50.595 252.033 52.0872 252.143 54.3322C252.24 56.2982 252.683 57.3559 253.934 58.6069C256.07 60.7419 261.355 60.9073 264.167 58.927C264.364 58.788 264.608 58.675 264.708 58.6758C264.808 58.6768 265.194 58.9715 265.566 59.3306C266.723 60.4479 266.652 60.4472 268.239 59.3575C269 58.8345 269.764 58.2962 269.937 58.1612L270.25 57.916L269.677 56.8547C268.617 54.8898 268.59 54.7014 268.479 48.5982C268.396 44.0115 268.345 43.0771 268.146 42.4575C267.548 40.6043 266.304 39.4805 264.281 38.9666C263.368 38.7345 259.811 38.6352 258.06 38.7928ZM308.777 38.9736C307.122 39.2738 306.388 40.0485 304.973 42.9854C303.018 47.0422 303.094 46.953 301.578 46.9666L300.595 46.9752L300.56 43.0868L300.524 39.1984H297.903C295.638 39.1984 295.271 39.2275 295.2 39.4124C295.155 39.53 295.118 44.1872 295.118 49.7616V59.897L297.829 59.8605L300.539 59.8238L300.567 55.6311L300.595 51.4384H301.542C302.308 51.4384 302.571 51.4967 302.916 51.7431C303.436 52.1144 304.249 53.6761 305.802 57.2879L306.921 59.8915H309.811C311.4 59.8915 312.7 59.8632 312.7 59.8287C312.7 59.7942 312.358 59.0486 311.94 58.1719C310.964 56.1275 309.9 53.8934 309.249 52.5204C308.386 50.7029 307.4 49.546 306.409 49.1877C305.844 48.9834 305.861 48.8062 306.465 48.6029C307.239 48.3422 307.922 47.4967 308.867 45.6285C310.008 43.3741 310.465 42.7967 311.238 42.6343L311.821 42.5117L311.937 40.7705C312.025 39.4521 312.013 39.0049 311.89 38.9286C311.634 38.7704 309.747 38.7977 308.777 38.9736ZM140.123 46.4802C140.123 50.634 140.085 55.1225 140.038 56.4548L139.954 58.8771L141.628 59.3775C145.104 60.4169 148.559 60.6591 151.01 60.0354C152.351 59.6944 153.545 59.1584 154.14 58.6304C154.353 58.4419 154.65 58.1768 154.801 58.0414C156.366 56.6371 157.141 53.7746 156.709 50.9934C156.276 48.1993 154.715 46.4782 151.822 45.6054C150.757 45.2842 147.462 45.2709 146.344 45.5834C145.804 45.7344 145.573 45.7499 145.501 45.6394C145.447 45.5558 145.401 44.0115 145.4 42.2077L145.398 38.9279H142.76H140.123V46.4802ZM273.27 39.3667C273.233 39.4624 273.219 44.1044 273.239 49.6823L273.275 59.8238L275.946 59.8605L278.618 59.8971V55.6315V51.3658L281.762 51.4022L284.907 51.4384L284.942 55.6678L284.978 59.8971L287.647 59.8605L290.317 59.8238L290.355 49.8154C290.377 44.3108 290.36 39.6702 290.319 39.5027C290.244 39.2002 290.229 39.1984 287.611 39.1984H284.978L284.942 43.0868L284.907 46.9752H281.796H278.685L278.658 43.1206L278.63 39.266L275.983 39.2294C273.923 39.2009 273.322 39.2313 273.27 39.3667ZM170.824 43.4297L171.704 43.7292L171.744 48.8011C171.766 51.5906 171.746 54.1957 171.699 54.5904C171.594 55.4813 171.433 55.5609 169.528 55.6625C167.917 55.7485 167.061 55.5304 166.375 54.8591C165.242 53.752 164.84 52.3532 164.828 49.4773C164.812 45.8601 165.607 43.9562 167.4 43.3166C168.209 43.0284 169.801 43.081 170.824 43.4297ZM181.171 43.2699C181.88 43.4486 182.776 44.1795 183.12 44.8595C183.729 46.0677 183.868 46.8784 183.872 49.2744C183.876 51.7201 183.782 52.2284 183.056 53.6785C182.694 54.4027 181.86 55.1971 181.14 55.5049C180.548 55.7578 178.241 55.7105 177.485 55.4297L177.046 55.2665V49.4689V43.6715L177.891 43.4036C178.843 43.1021 180.273 43.0438 181.171 43.2699ZM217.739 46.502C215.702 47.5539 215.269 50.1998 216.858 51.8899C218.15 53.2645 220.45 53.2756 221.773 51.9134C222.477 51.1886 222.692 50.6183 222.692 49.4741C222.692 48.5546 222.65 48.3898 222.248 47.7647C221.224 46.1683 219.383 45.6529 217.739 46.502ZM240.452 46.9091C242.408 47.1631 243.392 47.9094 243.877 49.5076C244.282 50.8402 244.196 52.6097 243.673 53.7003C243.228 54.628 242.455 55.3268 241.464 55.6977C240.297 56.1342 236.933 56.0254 236.319 55.5312C236.098 55.3539 236.071 47.2423 236.291 47.1068C236.415 47.0301 238.177 46.8366 239.125 46.7953C239.311 46.7874 239.908 46.8385 240.452 46.9091ZM149.495 49.7492C150.279 50.0422 150.643 50.3645 151.009 51.0873C151.198 51.4606 151.232 51.8236 151.192 53.0055C151.145 54.3707 151.116 54.5006 150.732 55.0473C149.986 56.1111 148.132 56.5188 146.142 56.0569L145.465 55.8999L145.427 53.1282C145.406 51.6037 145.42 50.23 145.458 50.0754C145.601 49.4908 148.236 49.278 149.495 49.7492ZM202.464 50.5431C202.789 50.6337 202.795 50.6641 202.855 52.457C202.889 53.4589 202.923 54.5798 202.931 54.948L202.946 55.6172L202.337 55.7973C201.392 56.0772 199.768 56.164 198.986 55.9765C198.172 55.7812 197.424 55.1568 197.211 54.4952C197.004 53.8548 197.026 52.5322 197.251 51.9929C197.502 51.3919 198.199 50.8817 199.099 50.6398C199.854 50.4368 201.875 50.3787 202.464 50.5431ZM262.793 50.5447C263.131 50.6384 263.132 50.6402 263.229 52.8643C263.282 54.0885 263.343 55.2043 263.364 55.3437C263.427 55.7656 262.537 55.9963 260.765 56.0179C259.337 56.0352 259.16 56.009 258.608 55.6987C257.834 55.2641 257.504 54.6859 257.418 53.6158C257.279 51.8792 258.081 50.8527 259.805 50.5611C260.582 50.4296 262.344 50.42 262.793 50.5447ZM1.01368 81.0518L0.681641 81.3837V86.7816C0.681641 92.0376 0.688944 92.1887 0.962011 92.5357L1.24225 92.8921H30.3576C58.3922 92.8921 59.4811 92.8829 59.6967 92.6448C59.8974 92.4231 59.9205 91.8207 59.9205 86.8291C59.9205 81.441 59.9118 81.2519 59.65 80.9902C59.3812 80.7214 59.1993 80.7197 30.3626 80.7197H1.34558L1.01368 81.0518Z" fill="white"/>
</svg>
