<svg width="227" height="86" viewBox="0 0 227 86" fill="none" xmlns="http://www.w3.org/2000/svg">
<g clip-path="url(#clip0_14_100)">
<path fill-rule="evenodd" clip-rule="evenodd" d="M0 12.5C3.9 8.3 7.9 4.2 11.8 0C14.2 0 16.5 0 18.9 0C18.9 15 18.9 30 18.9 45C12.6 45 6.3 45 0 45C0 34.2 0.1 23.4 0 12.5ZM5.1 14.7C5 14.9 4.7 15 4.8 15.3C4.8 23.6 4.8 31.8 4.8 40.1C8 40.1 11.1 40.1 14.3 40.1C14.3 28.4 14.3 16.8 14.3 5.10001C11.2 8.20001 8.1 11.5 5.1 14.7ZM23.7 0C30 0 36.3 0 42.6 0C42.6 15 42.6 30 42.6 45C36.3 45 30 45 23.7 45C23.7 30 23.7 15 23.7 0ZM28.4 5C28.4 16.7 28.4 28.3 28.4 40C31.6 40 34.7 40 37.9 40C37.9 28.3 37.9 16.7 37.9 5C34.7 5 31.5 5 28.4 5ZM47.3 12.5C51.2 8.3 55.2 4.1 59.1 0C61.5 0 63.8 0 66.2 0C66.2 2.5 66.2 5 66.2 7.5C68.6 5 70.9 2.5 73.3 0C75.6 0 78 0 80.4 0C80.4 15 80.4 30 80.4 45C78.8 45 77.2 45 75.7 45C75.7 31.7 75.7 18.3 75.7 5C72.6 8.3 69.4 11.7 66.3 15C66.3 25 66.3 35 66.3 45C64.7 45 63.1 45 61.6 45C61.6 31.7 61.6 18.3 61.6 5C58.5 8.3 55.4 11.6 52.3 14.8C52.1 15 52.2 15.3 52.1 15.6C52.1 25.4 52.1 35.2 52.1 45C50.5 45 49 45 47.4 45C47.3 34.2 47.3 23.4 47.3 12.5ZM146.5 31.8C151.2 31.8 155.8 31.8 160.5 31.8C160.5 33.1 160.5 34.4 160.5 35.7C157.2 35.7 153.9 35.7 150.6 35.7C150.6 37.2 150.6 38.7 150.6 40.2C152.1 40.2 153.6 40.2 155.1 40.2C156.8 40.2 158.6 40.8 159.8 42C161.1 43.2 161.7 44.9 161.8 46.7C161.9 48.7 161.4 50.8 160 52.2C158.8 53.6 156.9 54.2 155.1 54.2C152.2 54.2 149.3 54.2 146.5 54.2C146.5 46.8 146.5 39.3 146.5 31.8ZM150.6 44.2C150.6 46.3 150.6 48.3 150.6 50.4C152 50.4 153.5 50.4 154.9 50.4C155.8 50.4 156.8 49.9 157.2 49.1C157.7 48.1 157.8 46.9 157.3 45.8C156.9 44.8 155.9 44.2 154.8 44.2C153.5 44.2 152.1 44.2 150.6 44.2ZM172.9 31.8C174 31.8 175.1 31.8 176.2 31.8C178.8 39.3 181.4 46.8 183.9 54.3C182.5 54.3 181 54.3 179.6 54.3C179.1 53 178.8 51.6 178.3 50.3C175.8 50.3 173.3 50.3 170.8 50.3C170.4 51.6 169.9 53 169.5 54.3C168.1 54.3 166.6 54.3 165.2 54.3C167.8 46.8 170.3 39.3 172.9 31.8ZM174.6 38.5C173.7 41.2 172.8 44 171.9 46.7C173.7 46.7 175.4 46.7 177.2 46.7C176.4 43.9 175.5 41.2 174.6 38.5ZM188.2 31.8C189.6 31.8 191 31.8 192.3 31.8C192.3 34.9 192.3 37.9 192.3 41C194.7 41 197.1 41 199.5 41C199.5 37.9 199.5 34.9 199.5 31.8C200.9 31.8 202.2 31.8 203.6 31.8C203.6 39.3 203.6 46.8 203.6 54.3C202.2 54.3 200.9 54.3 199.5 54.3C199.5 51.2 199.5 48 199.5 44.9C197.1 44.9 194.7 44.9 192.3 44.9C192.3 48 192.3 51.2 192.3 54.3C190.9 54.3 189.5 54.3 188.2 54.3C188.2 46.8 188.2 39.3 188.2 31.8ZM210.2 31.8C211.6 31.8 213 31.8 214.3 31.8C214.3 35.4 214.3 38.9 214.3 42.5C216.6 38.9 218.9 35.4 221.1 31.8C222.7 31.8 224.4 31.8 226 31.8C223.6 35.3 221.3 38.8 218.9 42.3C221.5 46.3 224.1 50.3 226.7 54.3C225 54.3 223.3 54.3 221.6 54.3C219.1 50.4 216.6 46.5 214.2 42.5C214.2 46.4 214.2 50.3 214.2 54.3C212.8 54.3 211.4 54.3 210.1 54.3C210.2 46.8 210.2 39.3 210.2 31.8ZM0 50.1C26.8 50.1 53.5 50.1 80.3 50.1C80.3 51.8 80.3 53.4 80.3 55.1C53.5 55.1 26.8 55.1 0 55.1C0 53.4 0 51.7 0 50.1ZM0 60C11 60 22 60 33.1 60C33.1 66.7 33.1 73.3 33.1 80C23.7 80 14.2 80 4.8 80C4.8 81.7 4.8 83.3 4.8 85C3.2 85 1.6 85 0.1 85C3.7998e-07 76.7 0 68.4 0 60ZM4.8 65.1C4.8 68.4 4.8 71.8 4.8 75.1C12.7 75.1 20.5 75.1 28.4 75.1C28.4 71.8 28.4 68.4 28.4 65.1C20.5 65.1 12.6 65.1 4.8 65.1ZM37.9 60.1C52.1 60.1 66.2 60.1 80.4 60.1C80.4 66.8 80.4 73.4 80.4 80.1C74.1 80.1 67.8 80.1 61.5 80.1C61.5 81.8 61.5 83.4 61.5 85.1C59.9 85.1 58.3 85.1 56.8 85.1C56.8 83.4 56.8 81.8 56.8 80.1C50.5 80.1 44.2 80.1 37.9 80.1C37.9 73.4 37.9 66.7 37.9 60.1ZM42.5 65.1C42.5 68.4 42.5 71.8 42.5 75.1C47.2 75.1 52 75.1 56.7 75.1C56.7 71.8 56.7 68.4 56.7 65.1C52 65.1 47.3 65.1 42.5 65.1ZM61.5 65.1C61.5 68.4 61.5 71.8 61.5 75.1C66.2 75.1 70.9 75.1 75.7 75.1C75.7 71.8 75.7 68.4 75.7 65.1C70.9 65.1 66.2 65.1 61.5 65.1Z" fill="white"/>
<path fill-rule="evenodd" clip-rule="evenodd" d="M113.4 0C115 0 116.5 0 118.1 0C118.1 28.3 118.1 56.7 118.1 85C116.5 85 115 85 113.4 85C113.4 56.7 113.4 28.4 113.4 0Z" fill="white"/>
</g>
<defs>
<clipPath id="clip0_14_100">
<rect width="226.7" height="85.1" fill="white"/>
</clipPath>
</defs>
</svg>
