<?xml version="1.0" encoding="utf-8"?>
<!-- Generator: Adobe Illustrator 23.1.0, SVG Export Plug-In . SVG Version: 6.00 Build 0)  -->
<svg version="1.1" id="Слой_1" xmlns="http://www.w3.org/2000/svg" xmlns:xlink="http://www.w3.org/1999/xlink" x="0px" y="0px"
	 viewBox="0 0 283.5 283.5" style="enable-background:new 0 0 283.5 283.5;" xml:space="preserve">
<style type="text/css">
	.st0{fill:#4D4D4D;}
</style>
<g>
	<path class="st0" d="M141.7,255.1c-62.5,0-113.4-50.9-113.4-113.4S79.2,28.3,141.7,28.3c62.5,0,113.4,50.9,113.4,113.4
		S204.3,255.1,141.7,255.1z M141.7,41.9c-55.1,0-99.9,44.8-99.9,99.9s44.8,99.9,99.9,99.9c55.1,0,99.9-44.8,99.9-99.9
		S196.8,41.9,141.7,41.9z"/>
	<g>
		<path class="st0" d="M212.4,111.3c0-1.7,0-3.3-0.1-5c-0.2-2.6-0.8-5.2-1.6-7.7c-3.9-11.8-11.5-20.2-22.8-25.2
			c-4.8-2.1-9.8-3.2-15-3.2c-5,0-10.1-0.1-15.1-0.1c-11.4,0-22.8,0-34.1,0c-2.9,0-5.8,0-8.7,0c-2,0-3.9-0.1-5.9,0.1
			c-2.9,0.2-5.8,0.9-8.6,1.8c-7.5,2.5-13.8,6.8-18.7,12.9c-5.9,7.3-9.1,15.6-9.1,25c0,14.1-0.1,28.3-0.1,42.4
			c0,6.1,0.1,12.3,0.1,18.4c0,1.9,0.2,3.8,0.5,5.6c1.5,8,5,15,10.6,20.9c5.1,5.4,11.2,9,18.4,11.1c2.4,0.7,4.9,1.3,7.4,1.3
			c4.8,0.1,9.5,0.1,14.3,0.1c6.3,0,12.5,0,18.8,0c1.7,0,3.4,0,5.1,0c8.5,0,17.1-0.1,25.6-0.1c1.1,0,2.2,0,3.3-0.1
			c2.8-0.3,5.6-0.9,8.3-1.9c10.8-3.8,18.7-10.9,23.7-21.3c2-4.1,3.2-8.4,3.5-13c0.1-1.7,0.1-3.4,0.1-5.1c0-10.5,0-21,0-31.5
			C212.4,128.5,212.4,119.9,212.4,111.3z M201.7,139.8c0,9.4,0,18.7,0,28.1c0,2.7-0.1,5.4-0.7,8c-2.5,11-10.7,19.4-21.6,22.3
			c-2.2,0.6-4.4,0.9-6.7,0.9c-17.2,0-34.4,0.1-51.6,0.1c-3.1,0-6.2-0.1-9.4-0.1c-2.1,0-4.1-0.4-6-0.9c-10.9-2.9-19-11.4-21.4-22.4
			c-0.4-1.8-0.6-3.6-0.6-5.4c0-17.5-0.1-35-0.1-52.5c0-2.8,0-5.6,0.1-8.5c0.2-5.8,2-11.1,5.4-15.9c4.7-6.5,11-10.5,18.9-12
			c1.5-0.3,3-0.4,4.6-0.4c15.5-0.1,30.9-0.1,46.4-0.1c5,0,9.9,0,14.9,0.1c2.5,0,4.9,0.6,7.3,1.4c9.8,3.3,16.2,10,19.4,19.8
			c0.8,2.5,1.2,5,1.2,7.6c0,8.1,0.1,16.1,0.1,24.2C201.7,136,201.7,137.9,201.7,139.8C201.7,139.8,201.7,139.8,201.7,139.8z"/>
		<path class="st0" d="M142.7,102.4c-20.8-0.2-37.5,17-37.8,37c-0.3,21.2,17.1,38.1,37.4,38.3c20.8,0.2,38-17,38-37.7
			C180.3,119.7,163.4,102.2,142.7,102.4z M156.9,162.7c-4.6,3-9.7,4.3-15.2,4.1c-7.2-0.3-13.4-3-18.4-8.2c-4-4.1-6.5-9-7.2-14.7
			c-1.3-10.9,2.4-19.7,11.4-26.1c3.7-2.6,7.8-4.2,12.3-4.5c7.8-0.7,14.7,1.4,20.6,6.6c4.9,4.4,7.8,9.9,8.8,16.4
			c0.2,1.2,0.1,2.4,0.2,3.6C169.2,149.8,165,157.4,156.9,162.7z"/>
		<path class="st0" d="M185.7,91.6c-3-0.1-5.4,2.3-5.4,5.1c-0.1,3.3,2.1,5.6,5.2,5.6c3.1,0.1,5.5-2.2,5.5-5.3
			C191,93.8,188.6,91.6,185.7,91.6z"/>
	</g>
</g>
</svg>
