<svg width="227" height="227" viewBox="0 0 227 227" fill="none" xmlns="http://www.w3.org/2000/svg">
<g clip-path="url(#clip0_14_75)">
<path d="M0 118.6C0 115.2 0 111.8 0 108.4C0.1 107.9 0.199999 107.5 0.199999 107C0.599999 98.6 2 90.4 4.3 82.3C12.6 54.1 29.3 32.2 54.2 16.7C68.6 7.7 84.4 2.5 101.2 0.700001C103.5 0.500001 105.9 0.3 108.2 0C111.6 0 115 0 118.4 0C118.8 0.1 119.1 0.100001 119.5 0.200001C125.1 0.900001 130.9 1.2 136.4 2.4C164.5 8.4 187.4 22.9 204.4 46.1C224.5 73.5 230.9 104.2 224 137.4C218.9 162.1 206.4 182.8 187.2 199.2C163.2 219.7 135.2 228.6 103.6 226.3C91.6 225.4 80 222.5 69 217.8C45.9 207.8 27.9 192 15.2 170.3C7.1 156.5 2.3 141.6 0.6 125.6C0.5 123.3 0.3 120.9 0 118.6ZM84.7 120.7C72 111.3 64.4 99 63 83.1C61.7 67.3 66.7 53.5 78 42.4C98.2 22.4 130.7 22.6 150.3 42.8C160.1 52.9 165.2 65 165 79.1C164.8 96.6 157 110.3 143.1 120.8C155 125.8 165.1 133.2 173.3 143.2C181.5 153.1 186.8 164.4 189.4 177.1C220 141.9 223.1 81.8 182.3 42.2C141.5 2.6 75.6 5.3 38.2 48.8C2.40001 90.4 10 147 38.1 177.9C44 151 59.6 132 84.7 120.7ZM115 212.7C117.3 212.5 121.1 212.3 125 212C127.5 211.8 130 211.3 132.4 210.9C148.3 207.8 162.5 201.2 175.2 191.2C175.8 190.7 176.1 190.3 176 189.6C175.5 185.7 175.3 181.7 174.4 177.8C165.4 140.3 125.7 120.1 90 134.8C67.8 144 52.5 166.4 52 190.3C52 191 52.2 191.5 52.8 192C70.6 205.6 90.9 212.5 115 212.7ZM113.9 115C133.8 115 150.1 98.8 150.2 78.8C150.3 58.8 134 42.5 114.1 42.4C94 42.3 77.8 58.5 77.7 78.6C77.6 98.6 93.9 115 113.9 115Z" fill="#A6A8AB"/>
</g>
<defs>
<clipPath id="clip0_14_75">
<rect width="226.678" height="226.654" fill="white"/>
</clipPath>
</defs>
</svg>
