<?xml version="1.0" encoding="utf-8"?>
<!-- Generator: Adobe Illustrator 23.1.0, SVG Export Plug-In . SVG Version: 6.00 Build 0)  -->
<svg version="1.1" id="Слой_1" xmlns="http://www.w3.org/2000/svg" xmlns:xlink="http://www.w3.org/1999/xlink" x="0px" y="0px"
	 viewBox="0 0 283.5 283.5" style="enable-background:new 0 0 283.5 283.5;" xml:space="preserve">
<style type="text/css">
	.st0{fill:#4D4D4D;}
</style>
<g>
	<path class="st0" d="M185.5,146.1c-2.3-2.7-5.3-3.9-8.9-3.2c-2.3,0.5-4.3,1.7-6.3,3c-2.3,1.5-4.5,3.1-7,4.3
		c-9.3,4.3-19.2,5.9-29.4,4.6c-8.6-1.1-16.6-3.9-23.7-9.1c-1.2-0.9-2.6-1.6-4-2.2c-1.9-0.8-3.9-1-6-0.4c-4,1.2-6.9,4.8-7.3,9.1
		c-0.3,2.6,0.4,4.9,2.2,6.7c1.1,1.1,2.3,2.3,3.5,3.3c7,5.6,15,9.3,23.8,10.9c3.4,0.6,6.8,1.2,10.5,1.8c-0.5,0.4-0.8,0.5-1,0.8
		c-9.6,9.6-19.2,19.2-28.8,28.8c-1.2,1.2-2.1,2.4-2.6,4c-1,3.7,0.1,6.7,2.6,9.6c3.9,4.4,10.4,4.4,14.4,0.2
		c5.3-5.6,10.8-10.9,16.2-16.3c2.3-2.3,4.5-4.5,7-6.9c0.3,0.3,0.5,0.7,0.7,1c7.5,7.5,14.9,15,22.4,22.5c1.2,1.2,2.5,2.2,4.1,2.6
		c4.2,1.1,7.6-0.1,10.4-3.3c3.6-4.1,3.6-9.5-0.2-13.3c-9.5-9.5-18.9-18.9-28.4-28.3c-0.4-0.4-0.9-0.8-1.4-1.3
		c0.5-0.1,0.8-0.2,1.1-0.2c2.7-0.4,5.4-0.8,8.1-1.3c9.2-1.6,17.5-5.3,24.8-11.1c1.6-1.3,3.1-2.8,4.4-4.4c0.7-0.9,1.2-2.1,1.3-3.2
		C188.5,151.4,187.6,148.5,185.5,146.1z"/>
	<path class="st0" d="M140.5,143.3c22.2,0,40.7-18.8,40.2-40.2c0.5-21.7-18.2-40.2-40.1-40.2c-21.9,0-40.3,18.5-40.3,40.1
		C100.2,124.5,118.4,143.2,140.5,143.3z M140.6,83.3c11,0,19.7,8.8,19.6,19.9c0,10.9-8.8,19.6-19.8,19.6c-11,0-19.7-8.8-19.6-19.8
		C120.9,92,129.6,83.2,140.6,83.3z"/>
</g>
<path class="st0" d="M141.7,255.1c-62.5,0-113.4-50.9-113.4-113.4S79.2,28.3,141.7,28.3c62.5,0,113.4,50.9,113.4,113.4
	S204.3,255.1,141.7,255.1z M141.7,41.9c-55.1,0-99.9,44.8-99.9,99.9s44.8,99.9,99.9,99.9s99.9-44.8,99.9-99.9S196.8,41.9,141.7,41.9
	z"/>
</svg>
