<svg width="185" height="227" viewBox="0 0 185 227" fill="none" xmlns="http://www.w3.org/2000/svg">
<g clip-path="url(#clip0_14_70)">
<path d="M183.3 55.9C166.9 39.6 150.5 23.2 134.1 6.9C131.8 4.6 129.7 2.3 127.4 0C96 0 64.6 0 33.3 0C33.1 0.1 32.9 0.300001 32.7 0.300001C21.7 1.6 12 11.7 12 24.7C12.2 53.6 12.1 82.5 12.1 111.4C12.1 112 12.1 112.6 12 113.4C11.2 113.4 10.5 113.4 9.9 113.4C4.2 113.5 0 117.6 0 123.4C0 142.9 0 162.3 0 181.8C0 187.2 3.5 191.1 8.7 191.7C9.8 191.8 10.9 191.9 12.1 192C12.1 195.5 11.9 198.8 12.2 202.1C12.4 205.1 12.7 208.2 13.7 211C17 220.5 26 226.8 36.1 226.8C77.3 226.8 118.5 226.8 159.7 226.8C174 226.8 184.6 216.3 184.6 201.9C184.6 154.2 184.6 106.6 184.6 58.9C184.5 57.6 184.1 56.7 183.3 55.9ZM25.6 133.7C27 133.5 28.4 133.2 29.9 133.2C35.1 132.9 40.3 132.4 45.4 133.7C50.9 135.1 54.5 139.2 54.8 144.3C55.3 150.6 52.7 155.6 47.3 157.8C44.7 158.9 41.7 159.2 38.9 159.7C37.6 159.9 36.3 159.7 34.7 159.7C34.7 164.5 34.7 169.2 34.7 174C31.6 174 28.7 174 25.6 174C25.6 160.6 25.6 147.3 25.6 133.7ZM159.2 211.9C118.4 211.9 77.6 211.9 36.7 211.9C31.2 211.9 27.2 208.6 26.8 203.2C26.5 199.5 26.7 195.7 26.7 191.7C27.5 191.7 28.1 191.7 28.8 191.7C66.3 191.7 103.9 191.7 141.4 191.7C148.2 191.7 152.3 187 152.2 180.9C152 161.9 152 143 152.2 124C152.3 117.3 147.3 113.2 141.3 113.2C103.8 113.3 66.2 113.3 28.7 113.3C28.1 113.3 27.5 113.3 26.6 113.3C26.6 109.6 26.6 106.1 26.6 102.7C26.6 76.8 26.6 51 26.6 25.1C26.6 19.8 29.3 16 34 14.9C34.8 14.7 35.6 14.7 36.4 14.7C64.1 14.7 91.7 14.6 119.4 14.6C120.1 14.6 120.7 14.6 121.6 14.6C121.6 15.5 121.6 16.3 121.6 17C121.6 26.6 121.6 36.1 121.6 45.7C121.7 55.9 128.7 62.9 138.9 62.9C148.3 62.9 157.7 62.9 167.1 62.9C167.8 62.9 168.4 62.9 169.3 62.9C169.3 68 169.3 72.9 169.3 77.9C169.4 119.1 169.5 160.3 169.6 201.5C169.7 208.3 166.1 211.9 159.2 211.9ZM60.8 173.7C60.8 160.5 60.8 147.2 60.8 133.7C62.6 133.5 64.5 133 66.3 133.1C71.5 133.2 76.7 132.9 81.8 133.8C91.8 135.6 97.3 142.9 96.9 153.1C96.8 155.8 96.4 158.5 95.5 161.1C93.2 168.4 87.6 172.1 80.4 173.7C74.1 175 67.8 174.7 61.4 174.1C61.2 174 61 173.8 60.8 173.7ZM126.9 150C126.9 152.6 126.9 155 126.9 157.6C122.1 157.6 117.3 157.6 112.4 157.6C112.4 163.2 112.4 168.5 112.4 174C109.2 174 106.2 174 103.1 174C103.1 160.4 103.1 146.9 103.1 133.2C111.4 133.2 119.6 133.2 127.9 133.2C127.9 135.7 127.9 138.1 127.9 140.7C122.7 140.7 117.7 140.7 112.5 140.7C112.5 143.8 112.5 146.8 112.5 150C117.2 150 122 150 126.9 150Z" fill="white"/>
<path d="M84.8 161.8C88 156.8 87.8 148.2 84.3 144.1C81.3 140.5 74.6 138.8 70 140.5C70 149.2 70 158 70 166.8C75.9 168.3 82.1 166.1 84.8 161.8Z" fill="white"/>
<path d="M42.5002 151.4C44.9002 150.1 46.0002 147.4 45.5002 144.4C45.1002 142.2 43.2002 140.3 40.6002 140C39.0002 139.8 37.4002 139.9 35.8002 140C35.4002 140 34.7002 140.7 34.7002 141.1C34.6002 144.7 34.7002 148.4 34.7002 152.1C37.7002 152.8 40.5002 152.5 42.5002 151.4Z" fill="white"/>
</g>
<defs>
<clipPath id="clip0_14_70">
<rect width="184.6" height="226.8" fill="white"/>
</clipPath>
</defs>
</svg>
