<?xml version="1.0" encoding="utf-8"?>
<!-- Generator: Adobe Illustrator 23.1.0, SVG Export Plug-In . SVG Version: 6.00 Build 0)  -->
<svg version="1.1" id="Слой_1" xmlns="http://www.w3.org/2000/svg" xmlns:xlink="http://www.w3.org/1999/xlink" x="0px" y="0px"
	 viewBox="0 0 283.5 283.5" style="enable-background:new 0 0 283.5 283.5;" xml:space="preserve">
<style type="text/css">
	.st0{fill:url(#SVGID_1_);}
	.st1{fill:#FFFFFF;}
</style>
<g>
	<radialGradient id="SVGID_1_" cx="141.7323" cy="141.7323" r="113.3944" gradientUnits="userSpaceOnUse">
		<stop  offset="0.2346" style="stop-color:#2F9042"/>
		<stop  offset="0.4114" style="stop-color:#2A893E"/>
		<stop  offset="0.6669" style="stop-color:#1B7633"/>
		<stop  offset="0.9689" style="stop-color:#035721"/>
		<stop  offset="1" style="stop-color:#00531F"/>
	</radialGradient>
	<path class="st0" d="M141.7,28.3c-62.5,0-113.4,50.9-113.4,113.4s50.9,113.4,113.4,113.4c62.5,0,113.4-50.9,113.4-113.4
		S204.3,28.3,141.7,28.3z"/>
	<path class="st1" d="M199.1,173.5c-1.6-1.6-3.3-3.1-5-4.6c-2.4-2-4.8-4.1-7.2-6c-2.3-1.8-4.7-3.2-7.5-4.2c-1.9-0.7-3.9-1-5.9-0.8
		c-2.2,0.2-4.3,1-6.1,2.4c-1.4,1.1-2.7,2.2-4,3.4c-1.2,1-2.3,2.1-3.4,3.1c-0.9,0.9-1.8,1.9-2.8,2.7c-1.6,1.4-3.5,2.1-5.6,2.2
		c-2.8,0.1-5.3-0.8-7.7-2c-3.8-2-7.1-4.8-10.2-7.7c-3.6-3.4-6.9-7.1-10.1-10.9c-3-3.7-5.9-7.5-8.2-11.7c-1.5-2.7-2.8-5.6-3.4-8.7
		c-0.3-1.8-0.4-3.5,0.1-5.3c0.6-2.3,2-4,3.8-5.4c1-0.8,2.1-1.4,3.1-2.2c1.2-1,2.4-2,3.5-3c1.3-1.2,2.7-2.3,3.8-3.7
		c2.3-2.9,3.1-6.2,2.6-9.8c-0.4-2.5-1.2-4.8-2.3-7c-1.2-2.3-2.5-4.5-3.8-6.7c-2-3.2-3.9-6.4-6.3-9.3c-1.6-1.9-3.3-3.7-5.5-4.9
		c-2.2-1.2-4.4-1.5-6.8-0.7c-1.9,0.7-3.5,1.9-5,3.2c-1.2,1.1-2.4,2.2-3.7,3.2c-2.4,1.8-4.5,3.8-6.5,6.1c-3.2,3.8-5.6,8-7.3,12.7
		c-1.6,4.5-2.4,9.2-2.5,14c-0.1,3.7,0.3,7.3,1,10.9c1,5.4,2.8,10.6,5.1,15.7c2.3,5,4.9,9.8,7.9,14.4c4.3,6.6,9.1,12.7,14.3,18.6
		c3.7,4.2,7.5,8.2,11.6,12c3.5,3.2,7.1,6.3,11,9.1c6,4.4,12.3,8.1,19.3,10.6c5.6,2,11.3,3.2,17.5,3.2c2.8,0,5.7-0.3,8.6-0.9
		c4.2-0.9,8.1-2.3,11.8-4.4c2.7-1.5,5.2-3.3,7.4-5.4c1.3-1.2,2.7-2.4,4.1-3.7c1.2-1.1,2.4-2.2,3.5-3.4c2.4-2.8,2.7-5.9,1.2-9.2
		C202.4,177.2,200.9,175.2,199.1,173.5z"/>
</g>
</svg>
