<svg width="227" height="44" viewBox="0 0 227 44" fill="none" xmlns="http://www.w3.org/2000/svg">
<g clip-path="url(#clip0_14_104)">
<path fill-rule="evenodd" clip-rule="evenodd" d="M48.6 33.9001H45.5V15.8H52.5C54.5 15.8 56 16.3001 56.9 17.4001C57.9 18.5001 58.3 19.7 58.3 21.2C58.3 22.9 57.8 24.2 56.7 25.2C55.7 26.2 54.3 26.7 52.8 26.7H48.6V33.9001ZM48.6 23.9001H52.2C53.1 23.9001 53.9 23.7 54.4 23.2C54.9 22.7 55.1 22 55.1 21.2C55.1 20.5 54.9 19.8 54.4 19.3C53.9 18.8 53.1 18.5 51.9 18.5H48.6V23.9001ZM65.2 34.2C63.3 34.2 61.9 33.5001 60.9 32.1001C59.9 30.7001 59.4 29.1 59.4 27.2C59.4 25.2 59.9 23.6 61 22.3C62.1 21 63.5 20.3 65.3 20.3C67 20.3 68.4 20.9 69.5 22.2C70.6 23.5 71.1 25.1 71.1 27.2C71.1 29.3 70.5 31 69.4 32.3C68.4 33.5 66.9 34.2 65.2 34.2ZM65.3 31.7C67.2 31.7 68.2 30.2 68.2 27.2C68.2 25.8 68 24.8 67.5 24C67 23.2 66.3 22.8 65.4 22.8C64.4 22.8 63.7 23.2 63.2 24C62.7 24.8 62.5 25.9 62.5 27.3C62.5 28.8 62.8 29.9001 63.3 30.6001C63.7 31.3001 64.4 31.7 65.3 31.7ZM81 29L83.4 29.3C83.1 31 82.5 32.2 81.6 33C80.7 33.8 79.6 34.2 78.3 34.2C76.6 34.2 75.2 33.5 74.3 32.2C73.4 30.9 72.9 29.2 72.9 27.3C72.9 25.3 73.4 23.6 74.4 22.3C75.4 21 76.8 20.3 78.5 20.3C81.2 20.3 82.9 21.8001 83.4 24.9001L81 25.3C80.8 23.6 80 22.8 78.7 22.8C77.7 22.8 77 23.2001 76.6 24.1001C76.2 25.0001 75.9 26.1 75.9 27.3C75.9 28.7 76.1 29.7001 76.6 30.4001C77.1 31.1001 77.7 31.5 78.5 31.5C79.8 31.5 80.6 30.7 81 29ZM92.9 29L95.3 29.3C95 31 94.4 32.2 93.5 33C92.6 33.8 91.5 34.2 90.2 34.2C88.5 34.2 87.1 33.5 86.2 32.2C85.3 30.9 84.8 29.2 84.8 27.3C84.8 25.3 85.3 23.6 86.3 22.3C87.3 21 88.7 20.3 90.4 20.3C93.1 20.3 94.8 21.8001 95.3 24.9001L92.9 25.3C92.7 23.6 91.9 22.8 90.6 22.8C89.6 22.8 88.9 23.2001 88.5 24.1001C88.1 25.0001 87.8 26.1 87.8 27.3C87.8 28.7 88 29.7001 88.5 30.4001C88.9 31.1001 89.6 31.5 90.4 31.5C91.7 31.5 92.5 30.7 92.9 29ZM105.5 29.6001L108.1 30C107.8 31.2 107.1 32.2 106.2 33C105.2 33.8 104 34.2 102.6 34.2C100.9 34.2 99.5 33.6 98.4 32.3C97.3 31.1 96.8 29.4 96.8 27.2C96.8 25.2 97.3 23.5 98.4 22.2C99.5 20.9 100.9 20.2 102.8 20.2C104.6 20.2 106 20.9 107 22.2C108 23.5 108.5 25.2 108.5 27.2V27.5H99.9C99.9 28.4 100 29.1 100.1 29.7C100.3 30.2 100.6 30.7001 101.1 31.1001C101.6 31.5001 102.2 31.7 102.9 31.7C104.1 31.8 105 31.1001 105.5 29.6001ZM105.3 25.6001C105.3 24.6001 105 23.9 104.5 23.2C104 22.6 103.3 22.3 102.5 22.3C101.7 22.3 101.1 22.6 100.5 23.2C100 23.8 99.7 24.6001 99.6 25.6001H105.3ZM109 33.9001L113 20.5H116.3L120.2 33.9001H117.2L114.4 22.9001L111.2 33.9001H109ZM121.8 33.9001V20.5H124.6V25.4001H127.9C129.3 25.4001 130.4 25.8001 131.1 26.6001C131.8 27.4001 132.1 28.4 132.1 29.7C132.1 31 131.7 32.1 131 32.8C130.3 33.5 129.2 33.9001 127.9 33.9001H121.8ZM124.7 31.6001H127.5C128.2 31.6001 128.7 31.5 129 31.2C129.3 30.9 129.5 30.4 129.5 29.8C129.5 28.4 128.8 27.7 127.5 27.7H124.7V31.6001ZM143.9 33.9001H140.7L138 29L135.1 33.9001H132.7L136.9 27L133.3 20.5H136.5L138.6 24.4001L141 20.5H143.4L139.9 26.3L143.9 33.9001ZM150.1 34.2C148.2 34.2 146.8 33.5001 145.8 32.1001C144.8 30.7001 144.3 29.1 144.3 27.2C144.3 25.2 144.8 23.6 145.9 22.3C147 21 148.4 20.3 150.2 20.3C151.9 20.3 153.3 20.9 154.4 22.2C155.5 23.5 156 25.1 156 27.2C156 29.3 155.4 31 154.3 32.3C153.3 33.5 151.9 34.2 150.1 34.2ZM150.2 31.7C152.1 31.7 153.1 30.2 153.1 27.2C153.1 25.8 152.9 24.8 152.4 24C151.9 23.2 151.2 22.8 150.3 22.8C149.3 22.8 148.6 23.2 148.1 24C147.6 24.8 147.4 25.9 147.4 27.3C147.4 28.8 147.7 29.9001 148.2 30.6001C148.7 31.3001 149.4 31.7 150.2 31.7ZM161.4 28V25.9001C162.8 25.9001 163.6 25.7001 164 25.4001C164.3 25.0001 164.5 24.6 164.5 24.2C164.5 23.7 164.3 23.3 164 23C163.7 22.7 163.2 22.5 162.6 22.5C161.3 22.5 160.5 23.2 160.3 24.5L157.7 24C158.3 21.5 160 20.3 162.8 20.3C164.3 20.3 165.5 20.6 166.3 21.3C167.1 22 167.5 22.9001 167.5 23.9001C167.5 25.2001 166.7 26.2 165.2 26.8C167 27.3 167.9 28.4 167.9 30C167.9 31.2 167.5 32.2 166.6 33C165.7 33.8 164.5 34.2 162.9 34.2C159.9 34.2 158.1 32.8001 157.4 30.1001L160 29.6001C160.3 31.2001 161.2 32 162.6 32C163.3 32 163.9 31.8001 164.3 31.4001C164.7 31.0001 164.9 30.5001 164.9 29.9001C164.9 29.4001 164.8 29 164.5 28.7C164.2 28.4 163.9 28.2001 163.4 28.1001C163 28.1001 162.3 28 161.4 28ZM170.5 33.9001V15.8H181.9V19H174.4V22.9001H177.3C178.8 22.9001 180 23.1001 180.8 23.4001C181.7 23.7001 182.4 24.3001 182.9 25.1001C183.4 26.0001 183.7 27 183.7 28.3C183.7 30 183.2 31.4001 182.2 32.4001C181.2 33.4001 179.8 33.9001 178 33.9001H170.5ZM174.4 30.5H177.5C178.2 30.5 178.8 30.3001 179.2 29.9001C179.6 29.5001 179.8 29 179.8 28.3C179.8 26.9 178.9 26.2 177.2 26.2H174.5L174.4 30.5ZM197.1 33.9001H193.5C193.4 33.4001 193.3 32.7 193.3 31.8C192.7 32.8 192 33.4 191.4 33.7C190.8 34 190.1 34.2 189.3 34.2C188.1 34.2 187.2 33.9 186.4 33.2C185.7 32.5 185.3 31.6 185.3 30.5C185.3 29.7 185.5 28.9 185.9 28.2C186.3 27.5 187 26.9 187.9 26.5C188.8 26.1 190.5 25.8001 193 25.6001V24.8C193 23.5 192.4 22.9001 191.2 22.9001C189.9 22.9001 189.2 23.5 189 24.8L185.6 24.5C185.8 23 186.5 21.9 187.6 21.3C188.7 20.7 190 20.3 191.4 20.3C192.3 20.3 193.1 20.4001 193.8 20.6001C194.6 20.8001 195.1 21.1001 195.6 21.6001C196 22.0001 196.3 22.5001 196.5 22.9001C196.6 23.4001 196.7 24.2001 196.7 25.4001V31.5C196.8 32.6 196.9 33.4001 197.1 33.9001ZM193.1 27.5C190.5 27.8 189.2 28.6 189.2 30C189.2 30.5 189.3 30.9 189.6 31.2C189.9 31.5 190.3 31.7 190.8 31.7C191.5 31.7 192 31.4 192.4 30.8C192.8 30.2 193.1 29.5 193.1 28.7V27.5ZM199.9 33.9001V20.5H203.6V25.3H207.5V20.5H211.2V33.9001H207.5V28.2H203.6V33.9001H199.9ZM222.3 25.1001L226.6 33.9001H222.7L219.8 27.9001L217.9 30V33.8H214.2V20.4001H217.9V23.7C217.9 24.2 217.9 25.0001 217.9 26.1001C218.2 25.6001 218.5 25.2 219 24.7L222.8 20.4001H226.2L222.3 25.1001Z" fill="white"/>
<path fill-rule="evenodd" clip-rule="evenodd" d="M23.4004 28.2V31.3C23.5004 31.2 23.7004 31.1 23.9004 31L23.4004 28.2Z" fill="white"/>
<path fill-rule="evenodd" clip-rule="evenodd" d="M29.1002 31.8V26.5L28.2002 31C28.7002 31.2 29.0002 31.5 29.1002 31.8Z" fill="white"/>
<path fill-rule="evenodd" clip-rule="evenodd" d="M16.9004 35.5V27.9C16.9004 27.2 16.8004 26.7 16.5004 26.5C16.2004 26.2 15.7004 26.1 15.1004 26.1H12.4004V42.3C13.0004 42.5 13.6004 42.6 14.3004 42.8V37.5C14.4004 37.5 14.6004 37.5 14.7004 37.5C15.3004 37.5 16.1004 37.5 16.5004 37.1C16.8004 36.7 16.9004 36.2 16.9004 35.5ZM15.0004 35.8H14.2004V27.7H15.0004V35.8Z" fill="white"/>
<path fill-rule="evenodd" clip-rule="evenodd" d="M30 37.8C30.1 37.8 30.1 37.8 30 37.8C30.8 36.9 31.5 36.1 32.1 35.3V29.9H33V33.8C33.8 32.3 34.4 30.7 34.8 29C34.3 28.4 33.4 28.4 32.5 28.4H32.1V27.8H35.1C35.1 27.7 35.1 27.6 35.1 27.6V26.4H30V37.8Z" fill="white"/>
<path fill-rule="evenodd" clip-rule="evenodd" d="M17.4 36.9C17 37.7 16.2 38.2 15 38.2V42.9C15.8 43 16.7 43.1 17.6 43.1H17.7C17.5 42.7 17.4 42.2 17.4 41.7V36.9Z" fill="white"/>
<path fill-rule="evenodd" clip-rule="evenodd" d="M28.4998 33.1C28.4998 32.2 28.2998 31.7 27.4998 31.4L28.4998 26.4H26.4998L26.1998 31.9H25.9998L25.6998 26.4H23.8998L24.7998 31.4C23.9998 31.7 23.7998 32.3 23.7998 33.1V42C24.4998 41.7 25.0998 41.5 25.7998 41.1V32.8H26.4998V40.5C27.1998 40.1 27.7998 39.6 28.4998 39.2V33.1Z" fill="white"/>
<path fill-rule="evenodd" clip-rule="evenodd" d="M20.0002 26.2001C19.3002 26.2001 18.8002 26.3001 18.6002 26.6001C18.3002 26.9001 18.2002 27.4001 18.2002 28.1001V41.6001C18.2002 42.1001 18.2002 42.6001 18.6002 43.0001C20.0002 42.9001 21.3002 42.7001 22.6002 42.3001C22.6002 42.1001 22.7002 41.9001 22.7002 41.6001V32.8001H20.9002V41.9001H20.1002V27.8001H20.9002V32.0001H22.7002V28.1001C22.7002 27.4001 22.6002 26.9001 22.3002 26.6001C21.7002 26.1001 20.7002 26.2001 20.0002 26.2001Z" fill="white"/>
<path fill-rule="evenodd" clip-rule="evenodd" d="M1.5 22.1L1.6 22.7L1.8 23.3L2 23.8L2.2 24.3L2.5 24.8L2.8 25.3L3.1 25.8L3.4 26.3L3.8 26.7L4.6 27.5L5.4 28.3L6.3 29.1L7.2 29.9L8 30.7L8.8 31.5L9.2 31.9L9.5 32.3L9.8 32.8L10.1 33.3L10.4 33.8L10.6 34.3L10.8 34.8L11 35.4L11.1 35.9C10.8 33 8.6 30.9 6.6 29.1C1.7 24.6 2 23.8 1.8 16.9C0.599999 19.3 0 22 0 24.9C0 29.9 2 34.4 5.2 37.6C6.9 39.3 8.9 40.7 11.1 41.6V41.3L11 40.7L10.9 40.1L10.7 39.6L10.5 39.1L10.2 38.6L9.9 38.1L9.6 37.6L9.2 37.2L8.8 36.8L8 36L7.1 35.2L6.2 34.4L5.3 33.6L4.4 32.8L3.6 31.9L3.2 31.5L2.9 31L2.6 30.5L2.3 30L2 29.5L1.8 29L1.6 28.4L1.5 27.8L1.4 27.2V26.6V21.4L1.5 22.1Z" fill="white"/>
<path fill-rule="evenodd" clip-rule="evenodd" d="M19.9998 20.8C19.7998 20.7 19.5998 20.7 19.2998 20.7H19.1998L19.4998 20H19.5998C19.8998 20 20.1998 19.7 20.1998 19.2C20.1998 18.8 19.8998 18.5 19.5998 18.4H19.4998L19.1998 17.8H19.3998C19.6998 17.8 19.8998 17.8 20.0998 17.7C20.2998 17.6 20.3998 17.5 20.3998 17.2C20.3998 16.5 19.9998 16 19.1998 16C18.3998 16 17.7998 16.5 17.7998 17.2C17.7998 17.5 17.7998 17.6 17.8998 17.7C17.9998 17.8 18.1998 17.9 18.4998 17.9H18.5998L18.4998 18.3L18.8998 18.6L18.6998 18.7C18.4998 18.8 18.3998 18.9 18.3998 19.1C18.3998 19.3 18.4998 19.5 18.6998 19.5L18.7998 19.6L18.3998 20L18.5998 20.4H18.4998C18.1998 20.5 17.9998 20.6 17.8998 20.6C17.7998 20.7 17.7998 20.8 17.7998 21.1C17.7998 21.7 18.3998 22.3 19.1998 22.3C19.8998 22.3 20.3998 21.8 20.3998 21.1C20.2998 21 20.1998 20.9 19.9998 20.8Z" fill="white"/>
<path fill-rule="evenodd" clip-rule="evenodd" d="M34.0004 20.1V20.4H34.4004V21.5H34.0004L33.8004 21.8L34.5004 21.7V23.2H33.5004V22.6H32.5004V23.2H31.5004V21.7L32.2004 21.8L32.0004 21.5H31.6004V20.4H32.0004V20.1H23.7004C23.6004 20.4 23.4004 20.6 23.1004 20.6C22.8004 20.6 22.7004 20.4 22.5004 20.1H22.2004C22.1004 20.4 21.9004 20.6 21.6004 20.6C21.3004 20.6 21.2004 20.4 21.0004 20.1H20.9004C21.1004 20.4 21.2004 20.8 21.2004 21.2C21.2004 22.4 20.3004 23.4 19.0004 23.4C17.7004 23.4 16.6004 22.4 16.6004 21.2C16.6004 20.5 17.0004 20.1 17.1004 19.8C16.9004 19.7 16.7004 19.5 16.7004 19.3C16.7004 19.1 16.8004 18.9 17.0004 18.8C16.8004 18.5 16.5004 18 16.5004 17.5C16.5004 16.3 17.6004 15.3 18.9004 15.3C20.2004 15.3 21.1004 16.3 21.1004 17.5C21.1004 17.9 21.0004 18.3 20.8004 18.6H20.9004C21.0004 18.3 21.2004 18.1 21.5004 18.1C21.8004 18.1 21.9004 18.3 22.1004 18.6H22.5004C22.6004 18.3 22.8004 18.1 23.1004 18.1C23.3004 18.1 23.5004 18.3 23.7004 18.6H34.2004C33.3004 16.2 31.9004 14.1 30.2004 12.4C27.0004 9.09998 22.5004 7.09998 17.7004 7.09998C17.1004 7.09998 16.4004 7.09997 15.8004 7.19997V10.3L11.3004 14.7V11.6L15.7004 7.29997C15.6004 7.29997 15.4004 7.29997 15.3004 7.39997L11.3004 11.3V8.49997C11.2004 8.49997 11.1004 8.59998 11.1004 8.59998V11.4L9.20039 9.49997C9.10039 9.49997 9.00039 9.59998 9.00039 9.59998L11.1004 11.6V14.8L7.10039 10.8C7.00039 10.9 7.00039 10.9 6.90039 11L11.1004 15.1V18.3L6.60039 13.9V11.2C6.10039 11.6 5.60039 12.1 5.10039 12.5C4.10039 13.6 3.10039 14.8 2.40039 16.1L2.50039 16.6L2.60039 17.1L2.80039 17.6L3.00039 18.1L3.20039 18.6L3.50039 19.1L3.80039 19.5L4.10039 19.9L4.50039 20.3L5.20039 21.1L6.00039 21.9L6.80039 22.7L7.60039 23.5L8.40039 24.3L9.10039 25.1L9.50039 25.5L9.80039 25.9L10.1004 26.3L10.4004 26.8L10.7004 27.3L10.9004 27.8L11.1004 28.3L11.2004 28.8L11.3004 29.3V29.9V34.8V34.2V34C11.3004 34.8 11.4004 35.7 11.4004 36.7V37V41.9C11.6004 42 11.8004 42.1 12.0004 42.1V25.4H15.5004C16.9004 25.4 17.8004 26 18.0004 27.1C18.3004 26 19.1004 25.5 20.5004 25.5H21.3004C22.4004 25.5 23.2004 25.9 23.6004 26.6L23.4004 25.7H35.8004C35.8004 25.5 35.8004 25.3 35.8004 25.1C35.8004 23.4 35.6004 21.8 35.1004 20.2H34.0004V20.1ZM11.0004 25.1L6.50039 20.7V17.6L11.0004 22V25.1ZM11.0004 21.6L6.50039 17.2V14.1L11.0004 18.5V21.6ZM15.7004 20.7L11.2004 25.1V22L15.7004 17.6V20.7ZM15.7004 17.1L11.2004 21.5V18.4L15.7004 14V17.1ZM15.7004 13.6L11.2004 18V14.9L15.7004 10.5V13.6Z" fill="white"/>
<path fill-rule="evenodd" clip-rule="evenodd" d="M2.30019 15.9C2.10019 16.3 1.9002 16.6 1.7002 17C1.9002 17.6 2.10019 18.2 2.30019 18.6V15.9Z" fill="white"/>
<path fill-rule="evenodd" clip-rule="evenodd" d="M35.0998 18.6001H23.5998C23.4998 18.3001 23.2998 18.1001 23.0998 18.1001C22.8998 18.1001 22.6998 18.3001 22.5998 18.6001H22.1998C22.0998 18.3001 21.8998 18.1001 21.6998 18.1001C21.4998 18.1001 21.2998 18.3001 21.1998 18.6001H20.8998C21.0998 18.3001 21.2998 17.9001 21.2998 17.4001C21.2998 16.2001 20.4998 15.3 19.1998 15.3C17.8998 15.3 16.8998 16.2001 16.8998 17.4001C16.8998 17.9001 17.2998 18.4 17.3998 18.8C17.1998 18.8 16.9998 19 16.9998 19.3C16.9998 19.5 17.1998 19.7 17.3998 19.8C17.2998 20.2 16.7998 20.6 16.7998 21.3C16.7998 22.5 17.7998 23.4001 19.0998 23.4001C20.3998 23.4001 21.1998 22.5 21.1998 21.3C21.1998 20.9 21.0998 20.5001 20.7998 20.1001H21.0998C21.1998 20.4001 21.3998 20.6001 21.5998 20.6001C21.7998 20.6001 21.9998 20.4001 22.0998 20.1001H22.4998C22.5998 20.4001 22.7998 20.6001 22.9998 20.6001C23.1998 20.6001 23.3998 20.4001 23.4998 20.1001H31.9998V20.6001H31.5998V21.6001H31.9998L32.3998 22.1001L31.5998 22V23.3H32.3998V22.7H33.4998V23.3H34.2998V22L33.4998 22.1001L33.8998 21.6001H34.2998V20.6001H33.8998V20.1001H35.0998C35.3998 20.1001 35.5998 19.9 35.5998 19.5V19.2C35.6998 18.8 35.3998 18.6001 35.0998 18.6001ZM19.1998 22.5C18.3998 22.5 17.6998 21.9 17.6998 21.2C17.6998 20.6 17.8998 20.6001 18.4998 20.4001L18.2998 20.1001L18.6998 19.8C18.4998 19.7 18.3998 19.5 18.3998 19.3C18.3998 19.1 18.4998 18.9 18.6998 18.8L18.3998 18.6001L18.4998 18.3C17.8998 18.1 17.6998 18 17.6998 17.5C17.6998 16.8 18.3998 16.2 19.1998 16.2C19.9998 16.2 20.4998 16.8 20.4998 17.5C20.4998 18.1 19.9998 18.2 19.3998 18.2L19.5998 18.6001C19.9998 18.6001 20.1998 19 20.1998 19.5C20.1998 20 19.8998 20.3001 19.5998 20.4001L19.3998 20.9001C19.8998 20.9001 20.4998 21.0001 20.4998 21.6001C20.3998 22.0001 19.9998 22.5 19.1998 22.5Z" fill="white"/>
<path fill-rule="evenodd" clip-rule="evenodd" d="M15.5998 17.8L11.2998 22V24.8L15.5998 20.6001V17.8Z" fill="white"/>
<path fill-rule="evenodd" clip-rule="evenodd" d="M15.5998 10.1V7.19995L11.2998 11.4V14.2999L15.5998 10.1Z" fill="white"/>
<path fill-rule="evenodd" clip-rule="evenodd" d="M15.5998 10.7L11.2998 14.9V17.8L15.5998 13.6V10.7Z" fill="white"/>
<path fill-rule="evenodd" clip-rule="evenodd" d="M10.8996 7.90001L9.79961 6.8V0H9.49961V6.60001L8.29961 5.4V0H8.09961V5.10001L6.99961 4.10001V0H6.69961V3.8L6.59961 3.7V6.60001L10.8996 10.8V7.90001Z" fill="white"/>
<path fill-rule="evenodd" clip-rule="evenodd" d="M15.5998 14.2L11.2998 18.4V21.3L15.5998 17.1V14.2Z" fill="white"/>
<path d="M11.3 0H11V7.7H11.3V0Z" fill="white"/>
<path fill-rule="evenodd" clip-rule="evenodd" d="M6.59961 20.6001L10.8996 24.8V22L6.59961 17.8V20.6001Z" fill="white"/>
<path fill-rule="evenodd" clip-rule="evenodd" d="M15.5998 3.7L15.4998 3.8V0H15.2998V4.10001L14.1998 5.10001V0H13.8998V5.4L12.6998 6.60001V0H12.3998V6.8L11.2998 7.90001V10.8L15.5998 6.60001V3.7Z" fill="white"/>
<path fill-rule="evenodd" clip-rule="evenodd" d="M10.8996 11.4L6.59961 7.19995V10.1L10.8996 14.2999V11.4Z" fill="white"/>
<path fill-rule="evenodd" clip-rule="evenodd" d="M10.8996 14.9L6.59961 10.7V13.6L10.8996 17.8V14.9Z" fill="white"/>
<path fill-rule="evenodd" clip-rule="evenodd" d="M6.59961 17.1L10.8996 21.3V18.4L6.59961 14.2V17.1Z" fill="white"/>
</g>
<defs>
<clipPath id="clip0_14_104">
<rect width="226.6" height="43.1" fill="white"/>
</clipPath>
</defs>
</svg>
