<svg width="229" height="39" viewBox="0 0 229 39" fill="none" xmlns="http://www.w3.org/2000/svg">
<g clip-path="url(#clip0_14_132)">
<path fill-rule="evenodd" clip-rule="evenodd" d="M103.166 12.2524L107.866 8.75244H92.0664V29.6524H107.866V26.1524H96.5664V20.8524H106.166V17.3524H96.5664V12.2524H103.166Z" fill="white"/>
<path fill-rule="evenodd" clip-rule="evenodd" d="M80.0664 16.8525H74.5664V12.1525H83.3664L88.0664 8.65247H70.0664V29.5525H79.4664C84.7664 29.5525 87.7664 27.1525 87.7664 22.9525C87.7664 19.0525 85.0664 16.8525 80.0664 16.8525ZM79.2664 26.1525H74.5664V20.3525H79.2664C82.1664 20.3525 83.4664 21.3525 83.4664 23.2525C83.4664 25.2525 82.0664 26.1525 79.2664 26.1525Z" fill="white"/>
<path fill-rule="evenodd" clip-rule="evenodd" d="M120.666 8.75244H112.066V29.6524H116.566V23.7524H120.666C126.166 23.7524 129.566 20.8524 129.566 16.2524C129.666 11.5524 126.166 8.75244 120.666 8.75244ZM120.566 20.2524H116.566V12.2524H120.566C123.466 12.2524 125.066 13.6524 125.066 16.2524C125.066 18.7524 123.466 20.2524 120.566 20.2524Z" fill="white"/>
<path fill-rule="evenodd" clip-rule="evenodd" d="M62.2664 25.1525C61.0664 25.8525 59.7664 26.1525 58.3664 26.1525C54.2664 26.1525 51.3664 23.2525 51.3664 19.2525C51.3664 15.2525 54.2664 12.3525 58.3664 12.3525C59.8664 12.3525 61.2664 12.7525 62.4664 13.6525L65.7664 11.2525L65.5664 11.0525C63.6664 9.35249 61.1664 8.55249 58.2664 8.55249C55.1664 8.55249 52.2664 9.65249 50.2664 11.5525C48.1664 13.5525 47.0664 16.3525 47.0664 19.1525C47.0664 22.0525 48.1664 24.8525 50.2664 26.9525C52.4664 28.9525 55.2664 30.0525 58.2664 30.0525C61.5664 30.0525 64.3664 28.9525 66.2664 26.8525L63.3664 24.6525L62.2664 25.1525Z" fill="white"/>
<path fill-rule="evenodd" clip-rule="evenodd" d="M184.066 8.75244V29.6524H188.566V21.0524H198.166V29.6524H202.666V8.75244H198.166V17.3524H188.566V8.75244H184.066ZM176.266 29.6524H181.066L172.266 8.75244H167.666L158.666 29.6524H163.266L165.066 25.4524H174.666L176.266 29.6524ZM166.366 21.9524L169.866 13.5524L173.166 21.9524H166.366ZM212.866 21.2524H215.666L222.566 29.6524H228.366L219.066 18.8524L227.166 8.75244H221.966L215.266 17.7524H212.766V8.75244H208.366V29.6524H212.866V21.2524ZM143.666 16.9524V12.2524H155.466V8.75244H139.066V29.6524H148.466C153.766 29.6524 156.766 27.2524 156.766 23.0524C156.766 19.0524 154.066 16.8524 148.966 16.8524H143.666V16.9524ZM143.666 26.1524V20.3524H148.366C151.266 20.3524 152.566 21.3524 152.566 23.2524C152.566 25.2524 151.166 26.1524 148.366 26.1524H143.666Z" fill="white"/>
<path fill-rule="evenodd" clip-rule="evenodd" d="M16.9851 1.85462C15.1257 2.09335 13.423 2.60664 11.6041 3.47654C6.20018 6.0612 2.75689 10.7684 1.78603 16.8989C1.485 18.8005 1.48343 19.6155 1.77757 21.442C2.37587 25.1569 3.65356 27.9861 5.91105 30.5947C9.60574 34.864 15.3975 37.2046 20.7455 36.5896C29.0937 35.6294 35.3779 29.5263 36.4648 21.3229C36.6526 19.9049 36.5634 16.4374 36.3333 16.211C36.2702 16.149 35.4005 16.7102 34.4008 17.4582L32.5829 18.8182L32.4818 20.2271C31.9462 27.6818 25.0899 33.3924 17.7305 32.5137C15.2943 32.2227 13.2384 31.4442 11.3246 30.0876C10.2886 29.3535 8.35763 27.3873 8.08509 26.7893C7.99023 26.581 7.86359 26.4105 7.80394 26.4105C7.58776 26.4105 6.41558 23.6408 6.08809 22.3565C5.43767 19.8065 5.68844 16.6011 6.73508 14.0874C8.36593 10.1698 11.6729 7.30445 15.8572 6.18361C17.7944 5.66468 20.8437 5.7082 22.756 6.28224C23.5309 6.51486 24.7483 7.01485 25.4615 7.39352L26.7583 8.08183L28.3575 6.90496C29.2371 6.25766 29.9722 5.67955 29.991 5.62007C30.061 5.39903 28.3356 4.28743 26.6695 3.4803C23.5281 1.95856 20.3413 1.4235 16.9851 1.85462ZM31.9919 9.17559C31.2468 9.75197 28.1149 12.0675 23.1473 15.7149C21.8989 16.6315 20.5187 17.652 20.0804 17.9824C19.6419 18.3129 19.2063 18.5834 19.1123 18.5834C19.0183 18.5834 17.5807 17.7295 15.9176 16.6858C14.2545 15.6422 12.8059 14.7541 12.6982 14.7123C12.5465 14.6534 12.5043 15.1943 12.5102 17.1187L12.5179 19.6009L13.8799 20.4475C14.6291 20.9132 15.876 21.6934 16.6509 22.1814C17.4258 22.6693 18.3063 23.2158 18.6076 23.3956L19.1555 23.7225L22.5212 21.2286C24.3723 19.857 26.9083 17.9848 28.1567 17.0681C32.9107 13.5774 35.0445 11.9713 35.0445 11.8833C35.0445 11.5592 33.0918 8.56242 32.8841 8.56743C32.824 8.56884 32.4224 8.84263 31.9919 9.17559Z" fill="white"/>
</g>
<defs>
<clipPath id="clip0_14_132">
<rect width="228.367" height="38.2893" fill="white"/>
</clipPath>
</defs>
</svg>
