<svg width="227" height="227" viewBox="0 0 227 227" fill="none" xmlns="http://www.w3.org/2000/svg">
<path fill-rule="evenodd" clip-rule="evenodd" d="M0 113.4C0 50.9 50.9 0 113.4 0C176 0 226.8 50.9 226.8 113.4C226.8 175.9 175.9 226.8 113.4 226.8C50.9 226.8 0 175.9 0 113.4ZM16.4 113.3C16.4 166.8 59.9 210.3 113.4 210.3C166.9 210.3 210.4 166.8 210.4 113.3C210.4 59.8 166.9 16.3 113.4 16.3C59.9 16.3 16.4 59.8 16.4 113.3ZM49.9893 120.059C44.0851 107.972 41.6001 102.885 41.6001 89.1C41.6001 78.3 47.1001 67.6 52.6001 59.4C52.6666 59.302 52.7344 59.2019 52.8035 59.0998C54.7106 56.2831 57.6225 51.9825 61.0001 51.5C61.4257 51.4366 61.8586 51.3691 62.2974 51.3007C66.7044 50.6138 71.6985 49.8354 75.7001 52.2C79.1103 54.1893 86.1997 69.1004 88.7227 74.4071C88.8631 74.7025 88.9894 74.968 89.1001 75.2C94.4001 86.1 93.9001 90.3 85.7001 100.1C85.2254 100.676 84.7277 101.132 84.2709 101.55C82.033 103.599 80.775 104.751 88.0001 114.8C91.3001 119.3 100.4 127.7 104.4 130.9C107.8 133.7 126 147.4 129.4 145.9C131.2 145.1 135.9 139.7 137.5 137.7C137.92 137.151 138.308 136.655 138.682 136.177C139.466 135.174 140.187 134.251 141 133.1L143.7 129.4C143.959 129.038 144.003 128.943 144.069 128.867C144.131 128.796 144.211 128.741 144.5 128.5C150.292 123.322 158.703 129.158 165.745 134.044C166.727 134.725 167.682 135.388 168.6 136C169.43 136.562 171 137.476 172.852 138.556C177.917 141.505 185.1 145.689 185.1 147.3C185.1 152.9 183.1 159.5 181 163.7C178.4 169 177.1 171 173.1 175C160.3 187.9 135.7 187.1 119.3 182C107.2 178.2 101.7 175.2 91.5001 168.3C75.5001 157.5 58.8001 137.9 50.4001 120.9C50.2614 120.616 50.1245 120.336 49.9893 120.059Z" fill="#A6A8AB"/>
</svg>
