<?xml version="1.0" encoding="utf-8"?>
<!-- Generator: Adobe Illustrator 23.1.0, SVG Export Plug-In . SVG Version: 6.00 Build 0)  -->
<svg version="1.1" id="Слой_1" xmlns="http://www.w3.org/2000/svg" xmlns:xlink="http://www.w3.org/1999/xlink" x="0px" y="0px"
	 viewBox="0 0 283.5 283.5" style="enable-background:new 0 0 283.5 283.5;" xml:space="preserve">
<style type="text/css">
	.st0{fill:#FFFFFF;}
</style>
<g>
	<path class="st0" d="M141.7,255.1c-62.5,0-113.4-50.9-113.4-113.4S79.2,28.3,141.7,28.3s113.4,50.9,113.4,113.4
		S204.3,255.1,141.7,255.1z M141.7,41.9c-55.1,0-99.9,44.8-99.9,99.9s44.8,99.9,99.9,99.9s99.9-44.8,99.9-99.9
		S196.8,41.9,141.7,41.9z"/>
	<path class="st0" d="M131.7,182.4c-2.4,2.3-4.7,4.5-7,6.8c-4.4,4.3-8.8,8.6-13.3,12.8c-1.8,1.8-4.2,1.5-5.2-0.8
		c-1.2-2.6-2.1-5.4-2.9-8.1c-2.3-7.7-4.5-15.4-6.7-23c-1.2-4.3-2.5-8.6-3.7-12.9c-0.2-0.6-0.5-0.9-1.1-1.2
		c-10.3-3.7-20.7-7.3-31-11.1c-2.2-0.8-4-2-5.1-4.2c-1-2-0.8-3.8,0.8-5.3c1.1-1,2.4-1.9,3.7-2.5c15.9-6.7,31.8-13.3,47.7-19.9
		c15.5-6.4,31-12.9,46.5-19.3c11.3-4.7,22.6-9.4,33.9-14.1c2-0.8,4.1-1.4,6.4-1.2c2.8,0.2,4.1,2.5,3.7,4.8c-1.6,9-3.4,18.1-5,27.1
		c-1.7,8.9-3.3,17.8-5,26.7c-1.5,7.9-3,15.9-4.5,23.8c-1.5,8.3-3.1,16.5-4.6,24.8c-1.1,6-2.2,12.1-3.4,18.1
		c-0.8,3.9-5.2,6.6-9.3,5.8c-2-0.4-3.5-1.5-5-2.8c-9.9-8.1-19.8-16.1-29.6-24.1C131.9,182.6,131.8,182.6,131.7,182.4z M120.3,176.5
		c0.1,0,0.1,0.1,0.2,0.1c3.5-3.4,6.9-6.7,10.5-10.1c11.5,9.3,22.9,18.6,34.5,28.1c6.3-33.4,12.5-66.7,18.7-100.2
		c-35.4,14.7-70.6,29.4-106,44.1c0.5,0.2,0.7,0.3,1,0.4c8.6,3.1,17.1,6.1,25.7,9.2c0.8,0.3,1.4,0.2,2.2-0.3
		c19.2-11.4,38.4-22.8,57.6-34.2c1.2-0.7,2.3-1.4,3.5-2.1c0,0.2-0.1,0.3-0.1,0.3c-3.9,3.7-7.8,7.4-11.7,11.1
		c-10.8,10.2-21.6,20.5-32.4,30.7c-1,0.9-1.3,1.8-1.4,3.1c-0.4,4.1-0.9,8.2-1.3,12.3C120.9,171.5,120.6,174,120.3,176.5z"/>
</g>
</svg>
