<?xml version="1.0" encoding="utf-8"?>
<!-- Generator: Adobe Illustrator 23.1.0, SVG Export Plug-In . SVG Version: 6.00 Build 0)  -->
<svg version="1.1" id="Слой_1" xmlns="http://www.w3.org/2000/svg" xmlns:xlink="http://www.w3.org/1999/xlink" x="0px" y="0px"
	 viewBox="0 0 283.5 283.5" style="enable-background:new 0 0 283.5 283.5;" xml:space="preserve">
<style type="text/css">
	.st0{fill:#FFFFFF;}
</style>
<path class="st0" d="M154.8,124.4c0,5.6,0,11.1,0,16.7c0,1,0.1,2.1,0.4,3c0.6,2,2,2.6,3.9,1.9c1-0.4,1.9-1,2.7-1.7
	c3.6-2.9,6.4-6.5,9.1-10.3c6-8.5,10.8-17.6,15-27c0.1-0.3,0.2-0.5,0.4-0.8c1.3-2.9,3.6-4.4,6.6-4.4c6-0.1,12,0,18,0
	c0.5,0,1.1,0.1,1.6,0.2c2.5,0.5,3.6,2.2,3.1,4.7c-0.5,2.6-1.5,5-2.6,7.4c-3.2,6.5-7,12.7-11,18.8c-3,4.6-6.1,9-9.1,13.6
	c-0.5,0.8-1,1.7-1.5,2.5c-0.7,1.3-0.6,2.6,0.1,3.8c0.5,0.8,1.1,1.6,1.7,2.3c4.6,5,9.3,9.8,13.9,14.9c3.4,3.7,6.5,7.6,9.1,11.9
	c1.1,1.8,2.1,3.6,2.4,5.7c0.5,3.3-1.1,5.4-4.4,5.8c-0.7,0.1-1.4,0.1-2.1,0.1c-5.3,0-10.6,0-15.9,0c-2.9,0-5.3-0.9-7.3-2.9
	c-2.1-2.1-4.1-4.3-6.1-6.5c-4.2-4.6-8.5-9.1-13.4-13c-2.2-1.8-4.5-3.4-7.2-4.5c-1.6-0.6-3.2-0.8-4.9-0.5c-1.1,0.2-1.9,0.8-2.2,1.9
	c-0.2,0.9-0.4,1.9-0.4,2.8c0,5.2,0,10.3,0,15.5c0,0.7,0,1.4-0.1,2.1c-0.2,1.8-1.1,3.1-2.8,3.8c-1.8,0.8-3.7,1-5.6,1.1
	c-10.7,0.7-20.5-2-29.7-7.2c-9.5-5.3-17.3-12.6-23.7-21.3c-7.9-10.7-14.8-21.9-20.4-34c-2.8-6.1-5.3-12.3-7-18.9
	c-0.3-1.3-0.6-2.7-0.8-4c-0.6-4,1.1-6.1,5.2-6.2c5.9-0.1,11.9,0,17.8,0c0.4,0,0.7,0.1,1.1,0.1c1.8,0.2,3.4,1,4.3,2.7
	c0.8,1.3,1.4,2.8,1.9,4.2c3.8,10.8,8.5,21.1,14.6,30.8c2.4,3.8,4.9,7.6,8.2,10.7c0.9,0.9,2,1.7,3.1,2.4c0.4,0.3,0.8,0.4,1.3,0.5
	c1.8,0.5,3-0.3,3.4-2c0.3-1.2,0.4-2.5,0.4-3.7c0-8.4,0.1-16.8,0-25.2c0-4.6-1.4-8.9-4.5-12.5c-0.5-0.6-1-1.2-1.4-1.9
	c-1.8-2.8-0.1-6,3.2-6.2c0.3,0,0.5,0,0.8,0c8.5,0,17.1,0,25.6,0c3.5,0,4.9,1.3,5.1,4.8c0.1,2.7,0.1,5.4,0.1,8
	C154.8,117.9,154.8,121.2,154.8,124.4z"/>
<path class="st0" d="M141.7,255.1c-62.5,0-113.4-50.9-113.4-113.4S79.2,28.3,141.7,28.3s113.4,50.9,113.4,113.4
	S204.3,255.1,141.7,255.1z M141.7,41.9c-55.1,0-99.9,44.8-99.9,99.9s44.8,99.9,99.9,99.9s99.9-44.8,99.9-99.9S196.8,41.9,141.7,41.9
	z"/>
</svg>
