<svg width="227" height="81" viewBox="0 0 227 81" fill="none" xmlns="http://www.w3.org/2000/svg">
<path fill-rule="evenodd" clip-rule="evenodd" d="M11.6 10.6L15.5 0H69L65.1 10.6H11.6ZM5.8 26.5L9.7 15.9H63.2L59.3 26.5H5.8ZM0 42.3L3.9 31.7H57.4L53.5 42.3H0ZM113.8 46.5V46.3C116.1 45.3 117.7 44 119 42.9C121.5 40.5 123.1 36.8 123.1 32.4C123.1 24.2 118.3 19 110.8 17C108.2 16.3 105.3 16.1 101.1 16.1H80.5V80.9H103.7C108.2 80.9 110.7 80.7 113 80C120.6 77.9 125.3 71.6 125.3 62.7C125.3 57.3 123.6 53.1 119.8 50C118.6 49 116.2 47.4 113.8 46.5ZM93.2 70.2V53.2H101.7C105.7 53.2 108 53.7 109.9 56.1C111 57.6 111.6 59.6 111.6 61.7C111.6 64.5 110.8 66.6 109 68.3C107.2 70 104.8 70.2 102.1 70.2H93.2ZM100.3 42H93.1H93V26.8H99.8C102.3 26.8 103.5 26.9 104.7 27.2C107.6 28.1 109.6 30 109.6 34.4C109.6 38.1 107.7 40.8 104.7 41.7C103.6 42 102.5 42 100.3 42ZM144.6 27V80.9H157.5V27H174L177.7 16.1H126V27H144.6ZM181.7 16.1V80.9H202.3C210.9 80.9 215.1 80.1 219.1 77.3C222.6 74.9 226.7 70 226.7 61.3C226.7 52.4 222.7 47.9 220.4 45.9C217.4 43.3 213 41.3 204.7 41.3H194.4V27H219.8L223.5 16.1H181.7ZM204.2 70H194.6V51.9H204.2C207.2 51.9 209 52.5 210.3 53.5C212.5 55.2 213.6 57.5 213.6 60.9C213.6 64.3 212.5 66.1 211.7 67.1C210.1 69.1 207.9 70 204.2 70Z" fill="white"/>
</svg>
